<?xml version="1.0" standalone="no"?>
<!DOCTYPE svg PUBLIC "-//W3C//DTD SVG 20010904//EN"
 "http://www.w3.org/TR/2001/REC-SVG-20010904/DTD/svg10.dtd">
<svg version="1.0" xmlns="http://www.w3.org/2000/svg"
 width="260.000000pt" height="260.000000pt" viewBox="0 0 260.000000 260.000000"
 preserveAspectRatio="xMidYMid meet">
<metadata>
Created by potrace 1.11, written by Peter Selinger 2001-2013
</metadata>
<g transform="translate(0.000000,260.000000) scale(0.100000,-0.100000)"
fill="#000000" stroke="none">
<path d="M1160 2594 c-210 -27 -412 -101 -585 -216 -104 -68 -287 -251 -354
-353 -96 -147 -159 -298 -197 -476 -26 -118 -26 -380 0 -498 59 -273 168 -474
360 -666 195 -194 395 -302 669 -362 115 -25 380 -24 496 1 273 59 474 168
666 360 194 195 302 395 361 667 14 62 18 127 18 249 0 122 -4 187 -18 249
-112 522 -489 905 -1006 1022 -83 19 -332 33 -410 23z m968 -869 c33 -39 30
-96 -7 -137 -27 -30 -35 -33 -86 -33 -51 0 -59 3 -86 33 -56 62 -28 154 51
171 49 10 101 -4 128 -34z m-1323 -259 c101 -48 157 -139 157 -256 0 -165
-114 -280 -277 -280 -165 0 -274 112 -275 280 0 122 56 212 160 259 65 30 169
28 235 -3z m457 -114 c20 -70 44 -156 54 -192 9 -36 20 -68 24 -73 3 -4 14 25
24 65 9 40 34 129 54 198 l38 125 87 3 c48 1 87 -1 87 -5 0 -4 -41 -126 -91
-270 l-92 -263 -107 0 -107 0 -16 43 c-30 77 -177 489 -177 493 0 2 42 4 93 4
l92 0 37 -128z m868 -142 l0 -270 -90 0 -90 0 -2 198 -3 197 -102 3 -103 3 0
69 0 70 195 0 195 0 0 -270z"/>
<path d="M620 1308 c-28 -46 -28 -150 0 -195 17 -29 25 -33 63 -33 68 0 82 22
82 130 0 108 -14 130 -82 130 -38 0 -46 -4 -63 -32z"/>
</g>
</svg>
