<?xml version="1.0" encoding="UTF-8" standalone="no"?>
<svg
   xmlns:dc="http://purl.org/dc/elements/1.1/"
   xmlns:cc="http://creativecommons.org/ns#"
   xmlns:rdf="http://www.w3.org/1999/02/22-rdf-syntax-ns#"
   xmlns:svg="http://www.w3.org/2000/svg"
   xmlns="http://www.w3.org/2000/svg"
   id="svg2507"
   version="1.1"
   viewBox="0 0 34.142071 47.625"
   height="47.625mm"
   width="34.142071mm">
  <defs
     id="defs2501" />
  <metadata
     id="metadata2504">
    <rdf:RDF>
      <cc:Work
         rdf:about="">
        <dc:format>image/svg+xml</dc:format>
        <dc:type
           rdf:resource="http://purl.org/dc/dcmitype/StillImage" />
        <dc:title></dc:title>
      </cc:Work>
    </rdf:RDF>
  </metadata>
  <g
     transform="translate(-64.349533,-94.715627)"
     id="layer1">
    <g
       id="g3137">
      <g
         transform="matrix(0.15568358,0,0,0.15568358,69.803613,96.416426)"
         id="layer1-6"
         style="fill:none;stroke:#cbbd6a;stroke-width:1.32291663;stroke-miterlimit:4;stroke-dasharray:none;stroke-opacity:1">
        <path
           style="opacity:1;fill:none;fill-opacity:1;stroke:#cbbd6a;stroke-width:1.32291663;stroke-miterlimit:4;stroke-dasharray:none;stroke-opacity:1"
           d="m 60.107504,15.229156 c -9.226794,0 -16.654639,7.427863 -16.654639,16.654659 V 252.17572 c 0,9.2268 7.427845,16.65464 16.654639,16.65464 h 88.572186 c 9.2268,0 16.65464,-7.42784 16.65464,-16.65464 V 31.883815 c 0,-9.226796 -7.42784,-16.654659 -16.65464,-16.654659 z m 44.286096,8.360387 a 1.3431345,1.3431345 0 0 1 1.34271,1.34271 1.3431345,1.3431345 0 0 1 -1.34271,1.342716 1.3431345,1.3431345 0 0 1 -1.34271,-1.342716 1.3431345,1.3431345 0 0 1 1.34271,-1.34271 z m -19.102115,6.983876 a 2.2833287,2.2833287 0 0 1 2.284383,2.282912 2.2833287,2.2833287 0 0 1 -2.284383,2.284377 2.2833287,2.2833287 0 0 1 -2.282904,-2.284377 2.2833287,2.2833287 0 0 1 2.282904,-2.282912 z m 9.700175,1.209028 h 18.80388 c 0.59528,0 1.07386,0.478604 1.07389,1.073884 0,0.595278 -0.47861,1.075349 -1.07389,1.075349 H 94.99166 c -0.595281,0 -1.073893,-0.480071 -1.073893,-1.075349 0,-0.59528 0.478612,-1.073884 1.073893,-1.073884 z M 49.862337,47.094398 H 158.92486 V 237.28245 H 49.862337 Z M 104.3936,243.59498 a 9.133315,9.133315 0 0 1 9.13309,9.1331 9.133315,9.133315 0 0 1 -9.13309,9.13309 9.133315,9.133315 0 0 1 -9.133125,-9.13309 9.133315,9.133315 0 0 1 9.133125,-9.1331 z"
           id="rect4978" />
      </g>
      <g
         transform="matrix(0.34945459,0,0,0.34945459,36.310619,94.831926)"
         id="layer1-5"
         style="fill:#2a354f;fill-opacity:1">
        <path
           id="path1057"
           d="M 104.16604,110.24331 C 98.237916,108.85351 93.803564,104.06976 90.790108,99.029188 86.26067,87.74364 88.119077,73.848365 96.290014,64.655094 c 2.449809,-2.780565 5.260916,-5.29992 8.474016,-7.12505 -1.13579,-2.87016 2.88196,-2.139403 3.09669,-3.922061 -3.27697,-0.512042 -1.10177,-5.332782 -1.47181,-7.691044 -0.10018,-2.570455 1.10729,-5.58172 2.88691,-6.402178 -3.01664,-3.348205 1.03317,-5.419319 2.59428,-7.828098 -1.49575,-0.725901 -5.72235,-0.58524 -1.83977,-1.897223 4.07602,-0.993671 3.88122,4.31846 4.90556,6.547422 3.71338,-0.464893 7.13928,1.33111 10.17101,3.284625 2.0646,1.310754 4.08555,2.688591 6.1276,4.033963 -0.17872,3.912494 0.14327,7.883637 -0.59082,11.743085 0.1516,1.554218 -2.98423,2.74682 -1.76381,4.093512 3.69077,4.653127 7.03818,9.848811 7.6677,15.903781 0.69862,4.703841 0.75192,9.467735 1.03492,14.20705 2.73673,1.03656 5.82899,2.525593 6.26757,5.786851 0.59297,4.116216 -1.72444,9.000721 -5.82866,10.334161 -4.78336,0.8614 -7.20047,-5.28306 -5.89409,-9.124029 1.31124,-3.668176 5.37544,-5.907683 3.88789,-10.383341 -0.18006,-7.963523 -0.78739,-16.547634 -5.97699,-23.04075 -0.92124,-1.703339 -3.19755,-2.513294 -1.1716,-0.111906 3.24889,4.512222 5.83894,9.878876 5.43609,15.580736 0.0788,5.304702 0.2497,10.87482 -2.37959,15.683344 -2.95901,5.893256 -7.1705,11.467386 -13.26947,14.362206 -3.09205,1.45378 -6.49373,2.61453 -9.93229,2.31647 -1.53465,-0.13543 -3.06463,-0.3694 -4.55531,-0.76331 z m 13.89142,-2.59192 c 4.64631,-2.43036 8.95244,-6.10557 11.28116,-10.831575 -2.53804,0.704765 -5.28825,-3.74697 -6.02719,-1.410062 -1.85065,-0.07798 -3.622,1.195358 -4.18867,-1.433063 -2.87484,-3.177397 -1.26011,3.07286 -0.12565,4.337096 0.64572,0.915418 0.30754,2.551494 -0.0214,0.636466 -1.50942,2.530548 -0.89823,-3.020548 -2.22012,-4.067002 -0.51026,-2.984429 -6.447,1.336296 -5.16259,-2.903379 -1.42305,1.430995 -3.6815,1.492705 -3.55845,-0.543309 -1.91503,0.840558 -2.70375,-1.351821 -0.22629,-0.901166 1.41218,0.134707 3.57933,-2.655076 1.06662,-1.820147 0.75362,-0.847643 2.88892,-2.524028 0.30752,-1.597371 2.4062,-2.234214 0.24984,-5.441447 0.44779,-8.378716 0.0554,-1.649566 -5.25695,-0.37064 -3.88934,-1.748681 0.87244,0.241815 0.42633,-2.700233 2.48778,-2.614759 4.16281,-1.394059 1.7008,-5.740811 0.51933,-8.418988 -1.02821,-2.595163 -1.58906,-5.331051 -2.13053,-8.058789 -8.199567,3.520541 -13.986046,11.410329 -16.266081,19.892032 -0.986966,4.780632 -1.194462,9.855969 -0.116277,14.630112 0.362233,1.891694 3.084717,1.163397 1.199342,2.807434 2.677834,-1.601256 0.334175,3.199002 2.510337,1.16823 -0.04828,-2.048235 3.746156,-3.812725 2.772347,-0.54962 1.346969,1.427237 6.416712,4.537277 1.730004,5.892327 -1.011221,0.46228 -4.698924,0.67152 -2.418892,2.10438 3.72804,4.53531 9.90166,5.97211 15.53111,5.42709 2.25986,-0.0606 4.49529,-0.54704 6.4982,-1.61854 z m 3.63128,-7.992175 c -1.8465,-4.7248 2.11659,1.237765 0,0 z M 115.28073,98.8262 c -0.35012,-1.651422 -0.76013,-3.810525 0.3053,-0.99165 0.25037,0.270934 -0.29,2.7362 -0.3053,0.99165 z m -5.33471,-1.571 c 2.10445,-2.061576 -0.0915,2.210164 0,0 z m 2.49648,-0.522036 c 1.17828,-2.728218 0.65359,1.599202 0,0 z m 11.92766,-0.03271 c 0.0966,-1.989556 2.47049,2.011658 0,0 z M 91.99534,92.313831 c -1.48424,-1.706666 2.657815,-0.520521 0.318622,0.146816 l -0.318591,-0.146879 z m 9.49038,-2.127209 c -2.328202,0.719033 -2.991818,-2.428159 -0.57967,-1.361122 0.99633,0.839775 5.91398,-0.695461 3.43401,1.45611 -0.94854,0.11895 -1.90723,-0.03326 -2.85434,-0.09498 z m 5.65378,-9.32783 c -2.28184,-1.944119 4.61674,2.197574 0.46083,0.334998 z m 32.44694,23.266498 c 4.48683,-2.58535 5.00363,-10.446581 -0.0352,-12.742733 -2.93729,-0.405973 -1.2818,3.888409 0.0388,4.897057 1.68391,3.36012 -4.06997,3.725756 -4.49652,0.905535 -1.05741,-1.284565 -2.76216,-1.293584 -1.17472,0.462357 -2.9191,1.30327 -0.40732,6.611844 2.3898,7.272624 1.12921,0.31722 2.29467,-0.30641 3.27788,-0.79484 z m -42.677597,-4.08397 c -1.74389,-1.119395 -3.667133,1.57076 -0.702475,0.57451 0.258424,-0.12046 0.652593,-0.23286 0.702475,-0.57451 z m 37.724617,-5.592701 c 1.50722,0.05677 1.25287,-2.826782 -0.27737,-0.522037 -1.07378,0.664752 -0.28127,1.870419 0.27737,0.522037 z m -11.83004,-1.282462 c -0.16275,0.122002 -3.2312,-2.216927 -2.26547,0.455417 0.32078,1.114567 1.90123,0.06086 2.26547,-0.455417 z m 4.23951,0.953979 c -2.84052,-3.642577 3.68948,1.643078 4.50683,-1.931851 1.16906,-1.543535 -1.98709,-2.075198 0.65665,-2.433374 1.46495,-3.164879 0.97499,-6.889742 1.27798,-10.305357 0.008,-5.785859 -2.40529,-11.439717 -5.8427,-16.004573 -2.41408,0.08311 -3.3927,5.717494 -2.45809,8.128452 0.7936,4.268044 -1.62559,8.265459 -1.81442,12.500482 -0.21786,2.314842 0.60824,6.957469 -3.08014,5.388542 -0.33447,0.309974 2.12638,2.184464 2.90165,2.796671 1.96444,-0.135321 1.60397,3.423875 3.85224,1.861008 z m -3.22755,-2.967426 c 0.39472,-1.082973 3.48784,-1.879129 4.02211,-1.266609 -1.01181,0.58986 -2.90713,2.424278 -4.02211,1.266609 z m 7.76684,-16.643213 c 0.1891,-1.972033 1.56781,1.747782 0,0 z m -16.67915,13.92748 c -0.91886,-3.082015 -2.49592,1.878129 0,0 z m 4.74656,-6.698202 c 1.04588,-5.874956 -0.64412,-11.904563 0.44403,-17.753998 1.15362,-2.561936 2.88047,-6.711022 -1.64343,-6.415283 -3.59572,0.322925 -1.68981,5.787504 -2.32606,8.351469 0.0319,5.341208 -0.38657,10.714299 0.11448,16.034909 0.39122,1.505572 2.93274,0.459631 1.95012,2.450279 0.83752,-0.6153 1.13723,-1.728016 1.46092,-2.667376 z m -6.33851,-3.818055 c -0.51862,-1.73665 1.69698,2.369055 1.21179,-0.278699 -0.2033,-3.247233 -3.34503,1.459 -1.19785,1.292701 l 0.0763,-0.285641 -0.0903,-0.728364 z m 1.20192,-12.981074 c -0.32015,-1.123256 -0.32006,5.83883 0,4.715579 0.11983,-1.567881 0.11983,-3.147723 0,-4.715579 z m -0.96098,-4.887014 c -0.73847,-2.775521 -1.51259,2.935745 -0.0437,0.44353 z m 9.54014,-4.038904 c 1.54049,-0.815564 2.55477,-1.770204 0.0508,-1.900925 -2.32864,-0.345418 -2.86532,4.53164 -0.0508,1.900925 z m -10.63685,-4.804739 c 3.08385,0.356306 3.77163,-2.689532 1.01256,-3.875579 -1.22992,-1.18802 -3.41726,-3.509095 -3.44785,-0.273796 -0.14767,1.689812 -1.8887,6.813308 -0.47014,6.75396 0.56855,-1.267363 1.17856,-2.862483 2.90543,-2.604585 z m -0.82219,1.627413 c 0.75948,-2.546482 -2.74615,2.192191 -2e-5,0 z m -1.24011,-17.308859 c -1.71557,-1.348716 -0.54167,4.461507 -0.0126,1.052138 l 0.0717,-0.434692 -0.0588,-0.617451 z m -3.49827,-0.407032 c 1.59015,-2.008389 0.53287,1.747392 0,0 z"
           style="fill:#2a354f;fill-opacity:1;stroke-width:0.55477399" />
      </g>
    </g>
  </g>
</svg>
