<?xml version="1.0" encoding="UTF-8" standalone="no"?>
<svg
   xmlns:dc="http://purl.org/dc/elements/1.1/"
   xmlns:cc="http://creativecommons.org/ns#"
   xmlns:rdf="http://www.w3.org/1999/02/22-rdf-syntax-ns#"
   xmlns:svg="http://www.w3.org/2000/svg"
   xmlns="http://www.w3.org/2000/svg"
   version="1.1"
   id="svg2"
   viewBox="0 0 80.000005 59.999994"
   height="16.933332mm"
   width="22.577778mm">
  <defs
     id="defs4" />
  <metadata
     id="metadata7">
    <rdf:RDF>
      <cc:Work
         rdf:about="">
        <dc:format>image/svg+xml</dc:format>
        <dc:type
           rdf:resource="http://purl.org/dc/dcmitype/StillImage" />
        <dc:title></dc:title>
      </cc:Work>
    </rdf:RDF>
  </metadata>
  <g
     transform="translate(-393.08789,-102.38985)"
     id="layer1">
    <path
       style="fill:#e6e6e6;fill-opacity:1;stroke:none;stroke-width:1.5;stroke-linejoin:round;stroke-miterlimit:4;stroke-dasharray:none;stroke-opacity:1"
       d="m 182.37006,68.958397 325,0 0,149.999993 -325,0 z"
       id="rect4136-7" />
    <path
       style="fill:#ffffff;fill-opacity:1;stroke:none;stroke-width:1.5;stroke-linejoin:round;stroke-miterlimit:4;stroke-dasharray:none;stroke-opacity:1"
       d="m 194.87006,81.4584 300,0 0,125 -300,0 z"
       id="rect4983" />
    <path
       style="fill:#aaeeff;fill-opacity:1;stroke:none;stroke-width:1.5;stroke-linejoin:round;stroke-miterlimit:4;stroke-dasharray:none;stroke-opacity:1"
       d="m 194.87006,81.4584 300,0 0,84.36512 -300,0 z"
       id="rect4180" />
    <path
       style="fill:#37abc8;fill-opacity:1;stroke:none;stroke-width:1.5;stroke-linejoin:round;stroke-miterlimit:4;stroke-dasharray:none;stroke-opacity:1"
       d="m 194.87006,165.9624 300,0 0,39.75904 -300,0 z"
       id="rect4182" />
    <path
       id="rect4184"
       d="m 194.87006,155.10296 10.99398,-5.42169 c 0,0 12.43075,9.81364 21.6677,2.58472 12.71389,11.97851 25.59562,-6.24237 31.01731,-6.44318 5.77541,3.05477 24.9097,13.50399 46.71712,14.14577 11.78162,0.34673 39.68665,-9.91262 50.07563,-6.62047 21.06693,6.67586 47.17284,11.31537 69.52936,4.76686 35.07115,-10.27278 69.64535,-13.61861 69.64535,-13.61861 l 0.35355,22.6548 -83.3974,0 -216.6026,0 c 0,0 0.40161,-9.63856 0,-12.0482 z"
       style="fill:#164450;fill-opacity:1;stroke:none;stroke-width:1.5;stroke-linejoin:round;stroke-miterlimit:4;stroke-dasharray:none;stroke-opacity:1" />
    <path
       style="fill:#ffe680;fill-opacity:1;stroke:none;stroke-width:1.5;stroke-linejoin:round;stroke-miterlimit:4;stroke-dasharray:none;stroke-opacity:1"
       d="m 457.4346,119.60989 a 14.849242,14.849242 0 0 1 -14.84924,14.84924 14.849242,14.849242 0 0 1 -14.84924,-14.84924 14.849242,14.849242 0 0 1 14.84924,-14.84924 14.849242,14.849242 0 0 1 14.84924,14.84924 z"
       id="path4216" />
    <rect
       y="92.032722"
       x="340.76199"
       height="78.1353"
       width="111.01575"
       id="rect4246"
       style="fill:none;fill-opacity:1;stroke:none;stroke-width:1.5;stroke-linejoin:round;stroke-miterlimit:4;stroke-dasharray:none;stroke-opacity:1" />
    <rect
       y="-92.459396"
       x="270.75842"
       height="240"
       width="320"
       id="rect4742"
       style="fill:none;fill-opacity:1;stroke:none;stroke-width:1.5;stroke-linejoin:round;stroke-miterlimit:4;stroke-dasharray:none;stroke-opacity:1" />
    <rect
       y="102.38985"
       x="393.08789"
       height="60"
       width="80"
       id="rect4744"
       style="fill:none;fill-opacity:1;stroke:none;stroke-width:1.5;stroke-linejoin:round;stroke-miterlimit:4;stroke-dasharray:none;stroke-opacity:1" />
  </g>
</svg>
