<?xml version="1.0" encoding="UTF-8" standalone="no"?>
<svg
   xmlns:dc="http://purl.org/dc/elements/1.1/"
   xmlns:cc="http://creativecommons.org/ns#"
   xmlns:rdf="http://www.w3.org/1999/02/22-rdf-syntax-ns#"
   xmlns:svg="http://www.w3.org/2000/svg"
   xmlns="http://www.w3.org/2000/svg"
   style="enable-background:new"
   id="svg903"
   version="1.1"
   viewBox="0 0 34.131249 47.625"
   height="180"
   width="129">
  <defs
     id="defs897" />
  <metadata
     id="metadata900">
    <rdf:RDF>
      <cc:Work
         rdf:about="">
        <dc:format>image/svg+xml</dc:format>
        <dc:type
           rdf:resource="http://purl.org/dc/dcmitype/StillImage" />
        <dc:title></dc:title>
      </cc:Work>
    </rdf:RDF>
  </metadata>
  <g
     transform="translate(-48.211033,-113.27732)"
     id="layer1">
    <path
       id="path1705"
       d="m 70.715278,149.35542 c -0.971555,-0.33052 -2.985289,0.2648 -3.030652,-1.20995 -0.09341,-1.77306 -0.214749,-3.54254 -0.189834,-5.31992 -0.300076,-0.43831 -1.393013,-0.0536 -2.01493,-0.15782 -0.45626,-0.14274 -1.535495,0.35064 -1.564614,-0.22824 0,-1.60035 0,-3.20069 0,-4.80103 1.125871,0.0143 2.252138,0.15393 3.377832,0.0587 0.744915,-1.00594 0.310977,-2.43403 1.09757,-3.42163 0.866744,-1.71215 2.712298,-2.75861 4.58975,-2.9061 1.150716,-0.28357 0.0099,-1.73783 0.88981,-2.05291 0.952365,-0.0993 1.291962,1.34973 0.277686,1.51593 -0.02353,0.49865 0.635441,-0.004 0.902774,0.4482 1.084528,0.34153 2.283279,0.47215 3.181591,1.24558 1.645118,1.25851 2.332516,3.39377 2.265046,5.40603 0.0322,3.35043 0.08054,6.70312 -0.03351,10.05269 0.397982,1.18239 -1.246917,1.22555 -2.021473,1.25634 -2.569617,0.21215 -5.152034,0.21016 -7.727056,0.11411 z m -0.856287,-0.33278 c -0.395581,-0.47555 -1.301742,0.12693 -0.312049,0.0817 0.105389,0.0188 0.246999,0.0286 0.312049,-0.0817 z m 9.217678,0 c -0.447947,-0.41618 -1.074422,0.33436 -0.220042,0.0588 0.07622,-0.007 0.146679,-0.0394 0.220042,-0.0588 z m -9.016202,-0.79417 c 0.06096,-1.22447 -1.896572,0.17393 -0.596825,0.3794 0.247316,0.0745 0.753059,-0.006 0.596825,-0.3794 z m 8.946441,-0.0873 c -0.03735,-1.27371 -2.042829,0.4911 -0.60593,0.46009 0.291273,0.0374 0.810499,-0.0256 0.60593,-0.46009 z m -9.147917,-0.71958 c -0.234677,-0.5572 -1.426245,0.0735 -0.411406,0.0161 0.128843,0.023 0.319447,0.14913 0.411406,-0.0161 z m 8.991015,0.0254 c 0.583241,-0.46975 -1.457143,0.1922 -0.107272,0.0161 0.03575,-0.006 0.07151,-0.0108 0.107272,-0.0161 z m -7.882881,-0.5398 c -0.152046,-0.89244 -0.435513,0.56373 -0.06477,0.14506 z m 7.026593,0.23873 c 0.733949,-0.65548 -1.195613,-0.36192 -0.238813,0.0447 l 0.120023,-0.0174 z m -7.631032,-0.33632 c -0.416702,-0.67779 -0.377472,0.95782 -0.0023,0.0476 z m -2.241953,-3.05053 c -0.06075,0.46349 -0.06284,1.51808 0.007,1.6176 0.01049,-0.53915 0.0099,-1.07859 -0.007,-1.6176 z m 11.484323,0 c -0.06075,0.46349 -0.06275,1.51806 0.0069,1.6176 0.01048,-0.53915 0.0099,-1.07859 -0.0069,-1.6176 z m -10.915351,2.48506 c 0.01298,-0.91504 0.25642,-2.77806 -0.151394,-3.08616 -0.206766,1.0211 -0.07067,2.13697 0.0058,3.14073 l 0.06089,0.001 z m 0.743522,-1.62879 c -0.07158,-0.45202 0.325343,-2.01806 -0.45534,-1.51846 -0.0661,1.103 -0.0052,2.21374 -0.02555,3.32061 0.855932,-0.20438 0.305378,-1.23446 0.48089,-1.80215 z m 9.593074,0.0252 c 0.03564,-0.34736 -0.02654,-2.01106 -0.181413,-0.96142 -0.02071,0.87016 -0.106384,1.76285 0.105114,2.61596 0.11071,-0.54496 0.05238,-1.10337 0.0763,-1.65454 z m -8.865091,-0.0574 c 0,-0.5732 0,-1.14639 0,-1.71958 -1.011443,0.559 -0.153276,1.86724 -0.564386,2.73538 -0.121992,0.6169 0.669801,0.97761 0.567575,0.14569 -0.01168,-0.38709 0.0023,-0.77434 -0.0032,-1.16149 z m 7.656213,-10e-4 c -0.0039,-0.28162 0.0636,-1.79215 -0.200905,-1.19169 -0.05348,0.93067 -0.291825,1.91766 0.107523,2.80701 0.186373,-0.52118 0.04673,-1.07861 0.09338,-1.61532 z m 0.388775,-0.0168 c 0.107603,-0.34726 -0.126354,-1.58568 -0.147958,-0.5422 -0.0233,0.71218 -0.145366,1.47308 0.115195,2.15325 0.08477,-0.53381 0.0089,-1.07436 0.03275,-1.61105 z m 0.398096,0 c 0.07034,-0.34991 -0.106137,-1.32556 -0.07077,-0.41201 9.1e-5,0.66991 -0.143037,1.35444 0.04209,2.01276 0.03758,-0.53271 0.03133,-1.06711 0.02867,-1.60075 z m -7.536427,0.0252 c -0.159103,-0.48576 0.35941,-1.32943 -0.350082,-1.50914 0.04396,1.02391 -0.331786,2.12463 0.186117,3.08306 0.399886,-0.44744 0.03472,-1.06009 0.163965,-1.57392 z m 0.402958,0 c 0.07344,-0.36794 -0.08232,-1.87883 -0.185777,-0.78336 -0.04059,0.79835 -0.04784,1.60437 0.08504,2.39518 0.142195,-0.52594 0.07569,-1.07489 0.10074,-1.61182 z m 0.604437,0 c -0.159102,-0.48576 0.359394,-1.32941 -0.350079,-1.50914 0.04396,1.02391 -0.33179,2.12463 0.186108,3.08306 0.3999,-0.44743 0.03471,-1.06009 0.163971,-1.57392 z m 0.5037,0 c -0.0042,-0.3192 0.09705,-1.686 -0.248454,-1.19187 0.02044,0.80859 -0.326469,2.02254 0.185651,2.57454 0.160084,-0.43981 0.0048,-0.9268 0.0628,-1.38267 z m 0.503696,0 c 0.07345,-0.36794 -0.08232,-1.87883 -0.185773,-0.78336 -0.04058,0.79835 -0.04784,1.60437 0.08504,2.39518 0.142193,-0.52594 0.07569,-1.07489 0.100738,-1.61182 z m 0.705181,0 c 0,-0.53729 0,-1.07457 0,-1.61185 -0.902481,0.0126 -0.378439,1.20399 -0.5037,1.77673 0,0.48232 0,0.96463 0,1.44694 0.888387,0.0944 0.384296,-1.14678 0.5037,-1.61182 z m 1.208877,0 c 0,-0.53729 0,-1.07457 0,-1.61185 -0.944436,-0.27148 -0.694976,1.00545 -0.705181,1.56737 0,0.55211 0,1.10421 0,1.6563 1.012321,0.33164 0.648709,-1.08436 0.705181,-1.61182 z m 1.007395,0 c 0,-0.53729 0,-1.07457 0,-1.61185 -0.944434,-0.27148 -0.694968,1.00545 -0.705176,1.56737 0,0.55211 0,1.10421 0,1.6563 1.01232,0.33164 0.648702,-1.08436 0.705176,-1.61182 z m 1.007394,0 c 0,-0.53729 0,-1.07457 0,-1.61185 -0.940786,-0.1518 -0.530079,1.11225 -0.604435,1.67206 0,0.51721 0,1.03441 0,1.55161 0.957514,0.22817 0.513535,-1.11159 0.604435,-1.61182 z m 0.276431,-0.83111 c -0.103709,0.39925 0.0039,2.19295 0.01389,0.90177 0.0019,-0.30063 -0.0011,-0.60137 -0.01389,-0.90177 z m -5.817111,-1.08299 c -0.220958,-0.43449 -0.142862,0.27587 0,0 z m 0.604437,0 c -0.412891,-0.52652 -0.473312,0.43928 0,0 z m 0.5037,0 c -0.318987,-0.50867 -0.417747,0.51758 0,0 z m 0.453327,0 c -0.119417,-0.40618 -0.175418,0.40506 0,0 z m 0.75555,0 c -0.544537,-0.43962 -0.569683,0.44625 0,0 z m 1.208877,0 c -0.651311,-0.4551 -0.870114,0.44472 0,0 z m 1.007395,0 c -0.622679,-0.45707 -0.782694,0.42214 0,0 z m 1.007394,0 c -0.594064,-0.44528 -0.713175,0.44091 0,0 z m 0.778635,0.0399 c -0.249776,-0.17124 -0.203114,0.16986 0,0 z m -6.797829,-0.10658 c -0.264674,-0.15494 -0.278726,0.22635 0,0 z m -5.286905,-2.4266 c -0.194817,-0.68977 0.574817,-2.25868 -0.632535,-2.19179 -0.391451,1.02897 -0.0053,2.14759 -0.139997,3.21387 -0.25181,0.56856 0.329602,1.87853 0.742685,0.84072 0.101307,-0.61769 -0.04969,-1.24376 0.02985,-1.8628 z m 2.534669,-0.0948 c -0.04871,-0.41874 0.119841,-1.68125 -0.154971,-1.59395 -0.05543,1.27619 -0.05868,2.55645 0.04256,3.83053 0.147698,-0.73668 0.08087,-1.49118 0.112406,-2.23658 z m 0.510778,0.11997 c -0.108136,-0.48395 0.240088,-1.96129 -0.259644,-1.80137 -0.08776,1.28652 -0.05078,2.57728 0.0037,3.86437 0.63626,-0.38396 0.05153,-1.47542 0.255974,-2.063 z m 0.612677,2.16591 c 0.160183,-1.43883 0.06787,-2.88803 0.0925,-4.33181 -1.103975,0.35977 -0.217841,1.8414 -0.48234,2.68591 0.05864,0.45467 -0.317283,1.58916 0.389841,1.6459 z m 1.704337,-2.17765 c -0.130397,-0.4748 0.32054,-2.07394 -0.359485,-1.76775 -0.125561,1.19065 0.025,2.38891 -0.06488,3.58114 0.662991,0.52082 0.378797,-1.06247 0.42379,-1.44618 -4.2e-5,-0.1224 1.7e-5,-0.24481 5.71e-4,-0.36721 z m 0.402958,0.0621 c -0.06097,-0.45413 0.134045,-1.73472 -0.164159,-1.69294 -0.06196,1.25287 -0.05509,2.50914 0.02063,3.76125 0.273652,-0.66001 0.0704,-1.38127 0.143529,-2.06831 z m 0.604437,0.0422 c -0.09122,-0.46859 0.279098,-2.10537 -0.374898,-1.75399 -0.06437,1.20155 -0.0293,2.40523 -0.0012,3.60729 0.773926,0.25476 0.21329,-1.51119 0.376073,-1.8533 z m 7.530015,-1.22019 c -0.06737,0.61194 -0.04227,2.02211 0.0028,2.15221 0.01744,-0.71728 0.01186,-1.43492 -0.0028,-2.15221 z m -14.88401,1.07727 c 0,-0.73875 0,-1.4775 0,-2.21627 -0.940788,-0.1518 -0.530084,1.11224 -0.604439,1.67206 0,0.92016 0,1.84032 0,2.76048 0.940788,0.15181 0.530084,-1.11224 0.604439,-1.67205 0,-0.18141 0,-0.36281 0,-0.54422 z m 2.115533,0 c 0,-0.73875 0,-1.4775 0,-2.21627 -0.916927,-0.3433 -0.869184,0.88063 -0.805919,1.46267 0,0.98996 0,1.97992 0,2.96987 0.916928,0.34331 0.869184,-0.88061 0.805919,-1.46266 0,-0.2512 0,-0.5024 0,-0.75361 z m 0.705177,0 c -0.142693,-0.49269 0.326706,-2.09641 -0.359488,-1.82973 -0.125585,1.18915 0.02512,2.38589 -0.06484,3.57661 0.59413,1.14255 0.413542,-1.41452 0.424328,-1.74688 z m 2.619233,0.0504 c 0,-0.72197 0,-1.44393 0,-2.1659 -0.902481,0.0126 -0.378439,1.20398 -0.5037,1.77673 0,0.85169 0,1.70338 0,2.55507 0.902481,-0.0126 0.378438,-1.20398 0.5037,-1.77672 0,-0.12973 0,-0.25945 0,-0.38918 z m 2.417752,0.0504 c -0.100532,-0.45288 0.236574,-1.85556 -0.259414,-1.68096 -0.08739,1.20006 -0.0497,2.40457 0.0036,3.60525 0.593537,-0.31179 0.06636,-1.35564 0.255843,-1.92429 z m 0.493656,-0.22666 c -0.04532,-0.34231 0.115175,-1.57092 -0.150248,-1.39283 -0.05311,1.18082 -0.05707,2.3658 0.04259,3.54437 0.131481,-0.70963 0.07997,-1.43456 0.107658,-2.15154 z m 0.715221,0.22666 c 0,-0.70518 0,-1.41035 0,-2.11553 -0.902481,0.0126 -0.378439,1.20398 -0.5037,1.77673 0,0.81811 0,1.63622 0,2.45433 0.902481,-0.0126 0.378438,-1.20398 0.5037,-1.77672 0,-0.11294 0,-0.22588 0,-0.33881 z m 1.208877,0 c 0,-0.70518 0,-1.41035 0,-2.11553 -0.944436,-0.27149 -0.694976,1.00545 -0.705181,1.56737 0,0.8879 0,1.77579 0,2.66369 0.944435,0.2715 0.694976,-1.00544 0.705181,-1.56737 0,-0.18272 0,-0.36544 0,-0.54816 z m 1.007395,0 c 0,-0.70518 0,-1.41035 0,-2.11553 -0.944434,-0.27148 -0.694968,1.00545 -0.705176,1.56737 0,0.8879 0,1.77579 0,2.66369 0.944435,0.27149 0.694969,-1.00544 0.705176,-1.56737 0,-0.18272 0,-0.36544 0,-0.54816 z m 1.007394,-0.0504 c 0,-0.72197 0,-1.44393 0,-2.1659 -1.185606,0.52202 -0.266737,2.01799 -0.63171,2.97398 -0.212506,0.4352 0.328253,1.83204 0.630028,0.94791 0.04482,-0.5849 -0.03503,-1.17092 0.0015,-1.75599 z m 0.276655,-1.03258 c -0.07204,0.60765 -0.02867,1.94687 -0.0091,2.09329 0.04857,-0.69689 0.01443,-1.39566 0.0091,-2.09329 z m 0.529263,1.03258 c -0.102566,-0.46326 0.239347,-1.89217 -0.259453,-1.72109 -0.08737,1.22888 -0.04963,2.46212 0.0034,3.69161 0.52313,0.1285 0.12256,-1.59362 0.255859,-1.97052 z m 0.377475,-1.07736 c -0.05347,0.47989 -0.06731,1.88449 0.0082,1.87475 0.0084,-0.6249 0.0071,-1.24998 -0.0082,-1.87475 z m 0.402961,0 c -0.05347,0.47989 -0.06732,1.88449 0.0082,1.87475 0.0084,-0.6249 0.0071,-1.24998 -0.0082,-1.87475 z m 0.428442,1.02105 c -0.04457,-0.51045 0.101065,-1.71974 -0.140513,-1.77667 -0.11542,1.28202 -0.06322,2.57099 -0.0031,3.85444 0.271013,-0.66377 0.07204,-1.38747 0.143508,-2.07777 z m -8.117784,-2.27147 c 0.485623,-0.39683 -0.591542,-0.0501 -0.03968,10e-4 z m 1.116377,-0.14171 c -0.428023,-0.44556 -0.194839,0.55778 0,0 z m 0.554068,0.001 c -0.301829,-0.74875 -0.238389,0.64093 0,0 z m 0.502154,-0.12593 c -0.517516,-0.10636 0.169698,0.54238 0,0 z m 0.706723,0.12593 c -0.653544,-0.95097 -0.557983,0.89958 0,0 z m 1.208877,0 c -0.284019,-0.71645 -1.000278,0.5743 -0.150064,0.1909 0.08171,-0.0137 0.18159,-0.0973 0.150064,-0.1909 z m 1.007395,0 c -0.284016,-0.71645 -1.000272,0.5743 -0.150063,0.1909 0.08171,-0.0137 0.181591,-0.0973 0.150063,-0.1909 z m -6.548082,0 c -0.466127,-0.54117 -0.511575,0.55704 0,0 z m 0.705181,0 c -0.544526,-0.43962 -0.569692,0.44623 0,0 z m 1.309615,-0.0563 c -0.296105,-0.31051 -0.04237,0.44973 0,0 z m 5.54068,0.0671 c -0.55396,-0.70237 -0.785642,0.4962 0,0 z m 0.805918,-0.0108 c -0.318976,-0.50868 -0.417752,0.51756 0,0 z m 1.208878,0 c -0.220934,-0.43447 -0.142873,0.27585 0,0 z m -10.910815,-0.57734 c -0.244122,0.22497 0.213839,0.37352 0,0 z m 0.635367,-0.33507 c -0.100841,-0.38152 0.362832,-1.61974 0.112428,-1.5214 -0.164513,0.49049 -0.654756,1.87999 -0.14431,1.89094 0.02845,-0.12117 0.02708,-0.24608 0.03188,-0.36954 z m 9.469528,0.22484 c -0.165035,-1.53488 -0.271641,-3.3012 -1.517859,-4.39243 0.114322,0.57514 0.698885,1.25368 0.840017,1.94126 0.316352,0.93774 0.446961,1.92416 0.552321,2.90425 0.19283,-0.002 0.08097,-0.33549 0.125521,-0.45308 z m -8.7213,-0.40649 c -0.06688,-0.75755 0.537755,-2.06974 0.320348,-2.48408 -0.517884,0.96966 -0.687884,2.07125 -0.848808,3.14508 0.440641,0.52453 0.546856,-0.38751 0.52846,-0.661 z m 0.762867,0.32909 c 0.09707,-1.41823 0.505662,-2.79288 0.99306,-4.12097 -1.033942,1.23028 -1.573671,2.86532 -1.467842,4.46952 0.178851,0.34841 0.667001,-0.0868 0.474782,-0.34855 z m 0.682377,0.37817 c 0.423541,-1.37672 0.31304,-2.90227 1.022199,-4.1915 0.160178,-1.08465 -0.821626,0.62288 -0.856903,0.98708 -0.374226,1.03696 -0.444935,2.15726 -0.379652,3.24995 0.06978,0.0479 0.174298,0.0271 0.214356,-0.0455 z m 5.986724,-0.41919 c -0.120711,-1.23534 -0.290628,-2.49542 -0.832435,-3.62662 0.02746,1.21864 0.425695,2.41997 0.260295,3.64358 -0.01545,0.47861 0.786033,0.58137 0.57214,-0.017 z m 0.854895,-0.14541 c -0.08006,-0.55143 -0.294311,-2.09787 -0.469818,-1.98958 0.115969,0.73652 -0.0094,2.33716 0.491433,2.48331 0.03366,-0.16548 -0.01964,-0.32867 -0.02162,-0.49373 z m 0.750386,-0.0619 c -0.243687,-1.03461 0.04762,1.30801 0.0096,0.0643 l -0.0077,-0.0516 z m 0.489971,0.36202 c -0.161949,-1.46586 -0.398538,-3.09196 -1.541945,-4.14377 0.717144,1.28147 1.186912,2.70501 1.341476,4.16677 0.07649,0.28878 0.282706,0.32573 0.200469,-0.023 z m 0.551871,-0.38135 c -0.133872,-1.18138 -0.419135,-2.43028 -1.264618,-3.31779 0.644219,1.23285 1.006706,2.59477 1.199478,3.96714 0.233426,-0.0221 0.03255,-0.50633 0.06516,-0.64935 z m -8.134567,-0.35034 c -0.130666,0.62523 0.121271,0.78733 0,0 z m 0.710575,-0.4642 c 0.130063,-1.2776 0.30235,-2.59037 0.911834,-3.74086 -1.172929,0.7786 -1.085,2.32959 -1.281295,3.5616 -0.06021,0.33771 -0.265231,1.89537 0.278303,1.23426 0.06566,-0.34839 0.01945,-0.70736 0.09116,-1.055 z m 0.466406,0.46196 c -0.02113,-0.73266 0.263929,-2.03596 0.0331,-2.41263 -0.237907,1.0565 -0.32706,2.14011 -0.360796,3.22057 0.367778,0.50813 0.276014,-0.65242 0.327697,-0.80794 z m 0.462072,-0.17114 c 0.02735,-1.34811 0.144135,-2.69999 0.445694,-4.01647 -0.715902,1.02572 -0.408694,2.34297 -0.614752,3.50705 -0.02915,0.33268 -0.139593,1.45884 0.160095,1.31544 0.03401,-0.26805 -0.02674,-0.53805 0.009,-0.80602 z m 0.705181,-0.49338 c -0.03065,-1.1445 0.09378,-2.28678 0.06463,-3.43127 -0.674407,1.39652 -0.313798,3.00501 -0.660797,4.46588 -0.0087,0.77687 0.892869,0.66267 0.590823,-0.10371 -0.01373,-0.31032 0.0164,-0.62055 0.0054,-0.9309 z m 1.181524,0.16082 c -0.106934,-1.2441 -0.04847,-2.56618 -0.660552,-3.69817 -0.295545,1.29355 0.05693,2.62478 -0.04861,3.93385 -0.286662,0.59001 0.458871,1.96732 0.783752,0.87153 0.0077,-0.37136 -0.157606,-0.7365 -0.07459,-1.10721 z m 1.033922,1.05776 c -0.101857,-1.55642 -0.227034,-3.19393 -1.061963,-4.55702 0.206238,1.65457 0.306627,3.3201 0.380085,4.98517 0.274375,0.0399 0.877364,0.0147 0.681878,-0.42815 z m 4.000919,-0.0996 c -0.161198,0.39179 0.136092,0.50394 0,0 z m -2.884029,-1.35555 c -0.171276,-1.11144 -0.326816,-2.39294 -1.28264,-3.13051 0.660048,1.21991 1.152972,2.55097 1.243007,3.94378 0.208011,0.80194 0.06657,-0.73426 0.03963,-0.81327 z m -8.907041,0.85068 c -0.224909,0.22111 0.200527,0.29105 0,0 z m 11.520058,-0.89858 c -0.480293,-1.25948 0.306419,1.72208 0.107263,0.4207 -0.02696,-0.1423 -0.0644,-0.28242 -0.107263,-0.4207 z m -1.343252,0.40118 c -0.279222,0.0826 0.250083,0.2899 0,0 z m -6.850299,-0.30222 c -0.279225,0.0826 0.25008,0.2899 0,0 z m 7.801381,-1.11612 c -0.309811,-0.0403 0.306075,0.28542 0,0 z m -3.469574,-0.59647 c -0.279228,0.0826 0.250089,0.2899 0,0 z m -0.215839,-0.87546 c -0.04023,-0.5824 -0.661227,-0.69492 -0.220071,-0.066 0.122169,0.37214 0.486028,0.90333 0.220071,0.066 z m -5.389351,0.164 c 0.456931,-0.69735 -0.625321,0.63759 -0.139014,0.15226 z m 2.582998,0.20777 c -0.27923,0.0826 0.250094,0.28988 0,0 z m -1.781111,-0.53497 c 0.593199,-0.75967 -0.874512,0.9082 -0.0843,0.0977 z m 0.818487,-0.32762 c 0.06747,-0.30044 -0.328858,0.44827 0,0 z m 2.001945,-1.33479 c -0.22093,-0.43447 -0.142873,0.27584 0,0 z m 0.687544,-0.94139 c 0.313185,-1.161 -1.792739,-0.20526 -0.637444,0.25482 0.21619,0.0741 0.660559,0.0852 0.637444,-0.25482 z"
       style="fill:#2b6493;fill-opacity:1;stroke-width:0.1007397" />
    <path
       id="path1513"
       d="m 50.951806,143.88056 c 0.119481,-0.6791 1.097778,-2.34686 0.571637,-2.47366 -0.137422,0.80402 -1.097392,1.94962 -1.744894,1.94625 0.316204,-0.97586 1.117508,-1.72274 1.40808,-2.70421 -0.847068,0.28048 -1.340464,1.46115 -2.292415,1.68048 -0.07306,-0.97378 1.138848,-1.45212 1.639184,-2.18532 0.137336,-0.20132 0.839086,-0.8857 0.292391,-0.50157 -0.708741,0.38418 -1.386851,1.0018 -2.218108,0.99966 -0.34075,-0.89043 1.57891,-1.05911 1.912941,-1.9197 0.140716,-0.19446 0.873361,-0.81551 0.287983,-0.48667 -0.592785,0.2791 -1.352412,0.64614 -1.947516,0.20438 -0.147692,-0.87589 1.158195,-0.12615 1.195468,-0.74707 0.399678,-0.10052 1.305597,0.38456 0.842009,-0.23309 0.158946,-0.38482 1.166852,-0.94734 0.383657,-0.80721 0.06471,-0.43848 1.70099,-0.68741 1.107376,-0.89377 -0.845037,0.13833 0.625862,-1.09399 0.60042,-1.52593 0.172268,-0.39822 0.450481,-1.8142 0.405404,-0.58602 0.188179,1.22464 -0.468454,2.22986 -1.121229,3.17766 -0.364798,0.59721 -0.04891,1.33667 0.510767,0.54139 0.442826,-0.72789 1.284151,-1.16921 1.916441,-1.18808 0.339091,-0.7429 2.152161,0.27851 2.167328,0.056 -0.339851,-0.25875 -1.361817,-1.03823 -0.293433,-0.8437 1.153781,0.26532 2.280111,0.78587 3.188832,1.54859 0.604756,1.22748 -1.079536,1.73074 -1.893264,0.974 -0.413832,-0.35486 -1.56052,-1.15825 -0.639424,-0.19712 0.521794,0.58912 1.611923,1.37275 1.471192,2.079 -0.729564,-0.52494 -0.824144,1.88062 -1.716597,1.0987 -0.359828,-0.44977 0.213786,1.44284 -0.700235,1.16841 -0.758357,0.12429 -1.197781,0.81568 -1.971817,0.81391 -0.333408,0.41529 -0.781734,0.59875 -1.092405,0.0768 -0.199705,0.80054 -1.001986,1.0046 -0.970004,0.0314 -0.205923,0.34719 -0.8889,1.502 -1.299769,0.89672 z m 2.703752,-2.58052 c -0.311284,-0.39852 -0.05152,1.72162 0.05,0.44937 l -0.01103,-0.23069 z m 2.228761,-0.1273 c -0.4161,-0.36321 0.0388,1.21574 0.0436,0.15549 l -0.04357,-0.15549 z m 1.929385,-1.50977 c -0.635836,-1.17436 -0.197545,1.29738 0.08653,0.37317 l -0.02742,-0.17952 z m -1.840995,-0.77476 c -0.296618,-0.46938 -1.25716,-1.06003 -0.463339,-0.22356 0.05973,0.0554 0.434484,0.53769 0.463339,0.22356 z m 3.626207,-1.29629 c -0.159406,-0.40301 -1.623447,-1.08431 -1.545498,-0.64902 0.335716,0.20071 1.325411,1.40945 1.545498,0.64902 z m -3.347273,-0.65629 c -0.29662,-0.46936 -1.257151,-1.06002 -0.463333,-0.22356 0.05973,0.0554 0.434483,0.53769 0.463333,0.22356 z m 3.753924,-0.75051 c -0.46498,-0.14944 -1.329515,-0.38782 -0.673255,-1.05679 1.054154,-0.0115 -0.522433,-0.80963 -0.158568,-1.35932 -0.694331,-0.31352 -0.528735,0.77939 -1.388467,0.47756 -0.738671,0.12243 -1.344507,-0.11312 -1.656657,-0.55289 -0.776788,-0.64603 -2.046756,-0.79318 -2.747572,-1.63415 -0.430886,-1.38236 -1.806068,-2.57497 -3.303838,-2.44475 -0.749573,0.31326 -0.997512,-0.19069 -0.301608,-0.61208 0.627106,-0.51586 1.405966,-0.38672 1.626693,-1.30723 0.767985,-0.61285 1.86064,-0.47882 2.791566,-0.57343 1.135504,-0.22205 1.98932,0.65941 3.073726,0.77257 1.305251,-0.15009 -1.670753,-0.49705 -0.133127,-0.55433 0.813987,0.23457 1.572935,0.80846 2.481496,0.46169 0.469924,-0.0497 0.866771,-0.10926 0.206789,-0.31053 -0.595295,-0.20481 -1.265001,-0.60206 -0.630223,-1.20085 0.0419,-0.79043 -2.002087,-0.90428 -0.507874,-0.9438 0.301434,-0.0328 1.117907,0.0498 0.444085,-0.2011 -0.453145,-0.35261 -1.114785,-0.41911 -1.462062,-0.23853 -0.12233,-1.15859 -1.107227,-0.28564 -1.027471,0.46028 -0.414195,0.34478 -0.602418,1.98908 -1.181139,1.3889 -0.02712,-1.01597 0.259836,-2.13369 -0.385732,-3.03479 -0.748124,-0.67397 -0.140229,-1.28336 0.633585,-0.69085 0.916319,1.1741 0.258487,-0.90323 0.431122,-1.42051 0.247505,0.87324 0.745621,0.84553 1.190061,0.12043 -0.162194,0.42206 -0.01332,1.42451 0.237719,0.52606 0.0074,-0.87624 -0.328351,-1.96744 0.289619,-2.68348 0.330583,0.69885 0.31088,1.85567 0.177912,2.36167 0.959401,-0.56564 0.445462,-2.38103 1.448958,-2.69101 0.09192,0.48568 -0.125823,1.95793 0.651084,0.91675 0.162504,-0.52678 1.071967,-1.02922 0.632733,-0.0878 0.320947,0.15025 0.935988,-0.10267 0.868204,0.63536 1.225347,-0.13431 -0.184687,1.65835 -0.741086,1.93238 0.656569,0.0401 1.636215,-1.66856 1.959885,-0.54096 -0.152795,0.55272 0.782254,0.7473 -0.08254,1.06812 -0.411146,0.62881 0.920838,0.23533 0.615745,1.01099 0.560857,0.69107 -0.349116,1.30178 0.270984,1.91766 -0.479456,0.88893 -1.916574,0.0639 -2.648541,0.44507 0.56875,0.40489 2.225522,-0.0337 2.090866,0.80765 -0.384729,0.044 -1.748358,0.47891 -0.690399,0.62099 1.284332,-0.45017 -0.79962,0.72898 0.08655,0.61599 -0.0099,0.20508 -0.142477,1.43876 -0.327742,0.75325 -0.116258,-0.64692 -0.976607,-1.3925 -0.894553,-0.23176 -0.266345,0.73458 0.885263,0.29993 0.211203,0.83884 -0.314535,0.93981 -1.661758,-0.49977 -0.470373,0.0631 0.495308,-0.80503 -1.021045,-0.60857 -1.503358,-0.71314 -0.156256,-0.48782 0.87376,-1.14134 -0.267194,-1.00395 -0.724301,-0.22089 -0.576721,0.24138 -0.229243,0.62069 -0.593101,-0.30716 -1.571766,-0.89371 -1.425232,0.27268 -0.273083,0.60252 -1.271318,1.60364 -1.807046,1.27937 0.366887,-0.87743 -0.619383,0.33373 0.01418,0.6515 0.576385,0.22635 1.126104,1.04934 0.237493,1.29806 -0.158207,1.11929 1.546954,0.66216 2.248164,0.96884 1.074647,0.32665 1.975791,-0.36755 3.022281,-0.43842 1.40037,-0.23608 -1.126778,-1.43305 0.250019,-1.68109 1.694316,0.51511 3.593919,0.11756 5.199709,0.93398 0.652947,0.72532 -0.528023,1.72383 -0.411738,2.6373 -0.187959,1.47151 -1.711501,0.77204 -2.426112,0.1573 -0.990116,-0.54439 -2.047721,-1.13061 -3.201885,-1.15822 -0.95836,0.4691 0.05723,2.00834 -0.493796,2.61514 l -0.09528,-0.0925 -0.118664,-0.17198 z m -2.005245,-2.39546 c -0.384468,-0.22344 -1.50575,0.14664 -0.493455,0.12859 0.05348,-0.004 0.753084,0.0178 0.493455,-0.12859 z m 8.702882,-0.9188 c 0.188785,-0.69822 -2.044649,-1.15188 -0.712988,-0.41393 0.358563,0.31538 -0.165001,1.17006 0.712988,0.41393 z m -14.217234,-5.0349 c -0.01525,-0.90686 -1.165584,0.78758 -0.08895,0.10825 z m 8.019497,-1.57942 c -0.666088,-0.24525 -1.067054,0.29412 -0.105419,0.12959 0.04065,0.0601 0.324211,-0.10396 0.105419,-0.12959 z m 2.095289,-0.56481 c -0.48214,-0.20193 -1.991067,0.13732 -0.630861,0.12143 0.07134,-0.0165 0.930321,0.0338 0.630861,-0.12143 z m -1.532109,-0.82813 c -0.384475,-0.22344 -1.505743,0.14664 -0.493449,0.12859 0.05351,-0.004 0.75309,0.0178 0.493449,-0.12859 z m -2.08048,-0.38781 c -0.640974,-0.38432 -0.01492,-1.75629 -1.038143,-0.96386 -0.631224,-0.007 -1.171492,0.3066 -0.253804,0.55108 0.334887,-0.29875 2.038723,1.36835 1.291947,0.41278 z m 1.650952,-0.15567 c -0.555674,-0.38809 -1.074471,0.55068 0,0 z m 1.424915,-0.35543 c 0.726049,-0.69257 0.04652,-1.75795 -0.617444,-0.76239 -0.670544,0.44433 0.212252,0.0447 0.515024,-0.007 0.0024,0.15485 -1.361801,1.32829 -0.16239,0.91597 l 0.127356,-0.0654 z m -1.592724,-1.91675 c 0.770724,-1.07337 -1.417664,1.16162 -0.156944,0.18953 z m -6.096995,12.50183 c 0.217108,-1.10478 0.597331,0.50735 0.0166,0.47209 -0.04491,-0.1532 -0.02134,-0.3161 -0.0166,-0.47209 z m 4.596987,-1.87769 c 0.666093,-0.24523 1.06704,0.29413 0.105418,0.12959 -0.04067,0.0601 -0.324209,-0.10396 -0.105418,-0.12959 z m -2.792808,-11.4447 c -0.97743,-0.37788 0.553021,-1.06149 0.510494,-0.0656 0.238691,0.49785 -0.335075,0.01 -0.510494,0.0656 z"
       style="fill:#ca9cb8;fill-opacity:1;stroke-width:0.27893889" />
  </g>
</svg>
