<?xml version="1.0" encoding="UTF-8" standalone="no"?>
<svg
   xmlns:dc="http://purl.org/dc/elements/1.1/"
   xmlns:cc="http://creativecommons.org/ns#"
   xmlns:rdf="http://www.w3.org/1999/02/22-rdf-syntax-ns#"
   xmlns:svg="http://www.w3.org/2000/svg"
   xmlns="http://www.w3.org/2000/svg"
   enable-background="new"
   id="svg903"
   version="1.1"
   viewBox="0 0 55.442097 47.625"
   height="47.625mm"
   width="55.442097mm">
  <defs
     id="defs897" />
  <metadata
     id="metadata900">
    <rdf:RDF>
      <cc:Work
         rdf:about="">
        <dc:format>image/svg+xml</dc:format>
        <dc:type
           rdf:resource="http://purl.org/dc/dcmitype/StillImage" />
        <dc:title></dc:title>
      </cc:Work>
    </rdf:RDF>
  </metadata>
  <g
     style=""
     transform="translate(-48.211033,-113.27732)"
     id="layer1">
    <g
       id="g863">
      <path
         style="fill:#3486b9;fill-opacity:1;stroke-width:0.14609933"
         d="m 87.576549,149.08513 c -1.409013,-0.47935 -4.329463,0.38403 -4.395251,-1.75476 -0.135463,-2.57141 -0.311443,-5.13762 -0.27531,-7.7153 -0.43519,-0.63566 -2.020239,-0.0777 -2.922184,-0.22887 -0.661698,-0.20701 -2.226876,0.50852 -2.269106,-0.33102 0,-2.32093 0,-4.64185 0,-6.96277 1.632811,0.0208 3.266198,0.22325 4.898754,0.0852 1.080325,-1.45888 0.450999,-3.52999 1.591768,-4.96228 1.257009,-2.48307 3.933553,-4.00072 6.656358,-4.21462 1.668844,-0.41125 0.0144,-2.52031 1.290461,-2.97726 1.381182,-0.14406 1.873688,1.95747 0.402718,2.1985 -0.03412,0.72317 0.921558,-0.006 1.309262,0.65001 1.572854,0.49531 3.311362,0.68475 4.614152,1.80642 2.385859,1.82517 3.382769,4.92187 3.284919,7.84019 0.0467,4.859 0.11681,9.7213 -0.0486,14.57907 0.57718,1.71477 -1.80836,1.77737 -2.931672,1.82202 -3.726628,0.30767 -7.471819,0.30479 -11.206286,0.16549 z m -1.241845,-0.48263 c -0.573697,-0.68967 -1.887871,0.18409 -0.452553,0.11855 0.152842,0.0273 0.358214,0.0414 0.452553,-0.11855 z m 13.368084,0 c -0.649642,-0.60357 -1.558198,0.48491 -0.319119,0.0853 0.110542,-0.0103 0.212723,-0.0572 0.319119,-0.0853 z m -13.075889,-1.15175 c 0.08841,-1.77581 -2.750534,0.25224 -0.865555,0.55023 0.358673,0.10802 1.092135,-0.008 0.865555,-0.55023 z m 12.974717,-0.12661 c -0.05417,-1.84722 -2.962646,0.71223 -0.87876,0.66725 0.422423,0.0543 1.175439,-0.0372 0.87876,-0.66725 z m -13.266912,-1.04359 c -0.340343,-0.80808 -2.068434,0.10665 -0.596647,0.0234 0.186856,0.0334 0.463282,0.21627 0.596647,-0.0234 z m 13.039362,0.0368 c 0.845854,-0.68126 -2.113245,0.27874 -0.155573,0.0233 0.05185,-0.008 0.103715,-0.0156 0.155573,-0.0233 z M 87.941793,145.5345 c -0.220506,-1.29428 -0.631609,0.81756 -0.09393,0.21037 z m 10.190428,0.34622 c 1.064421,-0.95062 -1.733956,-0.52488 -0.346343,0.0648 l 0.174066,-0.0252 z m -11.067024,-0.48776 c -0.604329,-0.98297 -0.547436,1.3891 -0.0033,0.0691 z m -3.251428,-4.42408 c -0.0881,0.67219 -0.09113,2.20162 0.01008,2.34595 0.01521,-0.78191 0.01434,-1.56424 -0.01008,-2.34595 z m 16.655321,0 c -0.0881,0.67219 -0.091,2.2016 0.01,2.34595 0.0152,-0.78191 0.0144,-1.56424 -0.01,-2.34595 z m -15.830161,3.604 c 0.01883,-1.32705 0.371877,-4.02892 -0.219562,-4.47575 -0.299865,1.48086 -0.102489,3.09917 0.0084,4.55489 l 0.08831,0.002 z m 1.078304,-2.36217 c -0.103807,-0.65555 0.471835,-2.92673 -0.660364,-2.20218 -0.09586,1.59965 -0.0076,3.21052 -0.03705,4.81577 1.24133,-0.2964 0.44288,-1.79029 0.697417,-2.61359 z m 13.912507,0.0365 c 0.05169,-0.50376 -0.03849,-2.91658 -0.263096,-1.39432 -0.03003,1.26196 -0.154286,2.5566 0.152443,3.79384 0.160559,-0.79034 0.07597,-1.60018 0.110657,-2.39952 z m -12.856738,-0.0832 c 0,-0.83129 0,-1.66257 0,-2.49385 -1.466861,0.8107 -0.22229,2.70799 -0.818509,3.96702 -0.176921,0.89468 0.971389,1.4178 0.823134,0.2113 -0.01694,-0.56139 0.0034,-1.12301 -0.0046,-1.68447 z m 11.103545,-0.002 c -0.0056,-0.40843 0.09223,-2.5991 -0.291367,-1.72827 -0.07756,1.34971 -0.423223,2.78112 0.155938,4.07091 0.27029,-0.75585 0.06777,-1.56427 0.135429,-2.34264 z m 0.563827,-0.0244 c 0.156053,-0.50362 -0.183248,-2.29966 -0.214579,-0.78633 -0.03379,1.03285 -0.21082,2.13635 0.167063,3.12278 0.122934,-0.77416 0.01292,-1.5581 0.04749,-2.33645 z m 0.577344,0 c 0.102009,-0.50746 -0.153927,-1.92242 -0.102638,-0.59752 1.32e-4,0.97155 -0.207441,1.96429 0.06104,2.91904 0.0545,-0.77258 0.04544,-1.5476 0.04158,-2.32152 z m -10.929822,0.0365 c -0.230741,-0.70448 0.52124,-1.92803 -0.507712,-2.18865 0.06375,1.48494 -0.481178,3.08128 0.269919,4.47125 0.579941,-0.6489 0.05035,-1.53741 0.237793,-2.2826 z m 0.584396,0 c 0.10651,-0.53361 -0.119382,-2.7248 -0.269426,-1.13608 -0.05886,1.15782 -0.06938,2.32677 0.123327,3.47365 0.20622,-0.76275 0.109775,-1.55887 0.146099,-2.33757 z m 0.876595,0 c -0.23074,-0.70448 0.521217,-1.928 -0.507708,-2.18865 0.06376,1.48494 -0.481184,3.08128 0.269906,4.47126 0.579961,-0.6489 0.05034,-1.53742 0.237802,-2.28261 z m 0.730499,0 c -0.0061,-0.46292 0.140743,-2.44515 -0.360325,-1.72853 0.02965,1.17268 -0.473467,2.93323 0.269244,3.73378 0.232164,-0.63785 0.0069,-1.34411 0.09108,-2.00525 z m 0.730493,0 c 0.106522,-0.5336 -0.11938,-2.7248 -0.26942,-1.13608 -0.05886,1.15782 -0.06938,2.32677 0.123323,3.47365 0.206218,-0.76275 0.109775,-1.55887 0.146097,-2.33757 z m 1.022699,0 c 0,-0.77921 0,-1.55841 0,-2.3376 -1.308837,0.0183 -0.548836,1.7461 -0.730498,2.57672 0,0.69949 0,1.39898 0,2.09845 1.288397,0.13684 0.557331,-1.66313 0.730498,-2.33757 z m 1.753193,0 c 0,-0.77921 0,-1.55841 0,-2.3376 -1.369683,-0.39373 -1.0079,1.45816 -1.0227,2.2731 0,0.8007 0,1.60139 0,2.40207 1.468135,0.48097 0.940801,-1.57261 1.0227,-2.33757 z m 1.460991,0 c 0,-0.77921 0,-1.55841 0,-2.3376 -1.369681,-0.39373 -1.007889,1.45816 -1.022692,2.2731 0,0.8007 0,1.60139 0,2.40207 1.468133,0.48097 0.94079,-1.57261 1.022692,-2.33757 z m 1.460989,0 c 0,-0.77921 0,-1.55841 0,-2.3376 -1.36439,-0.22016 -0.768755,1.61305 -0.876591,2.42492 0,0.75009 0,1.50017 0,2.25025 1.388649,0.33091 0.744762,-1.6121 0.876591,-2.33757 z m 0.400899,-1.20533 c -0.150406,0.57902 0.0057,3.18037 0.02015,1.30781 0.0028,-0.436 -0.0016,-0.87214 -0.02015,-1.30781 z m -8.436358,-1.57062 c -0.320447,-0.63012 -0.207188,0.40008 0,0 z m 0.876595,0 c -0.598802,-0.76359 -0.686428,0.63707 0,0 z m 0.730499,0 c -0.462617,-0.73771 -0.605844,0.75063 0,0 z m 0.657444,0 c -0.173186,-0.58907 -0.254403,0.58744 0,0 z m 1.095748,0 c -0.789723,-0.63756 -0.826191,0.64718 0,0 z m 1.753193,0 c -0.944574,-0.66001 -1.261896,0.64496 0,0 z m 1.460991,0 c -0.90305,-0.66287 -1.135114,0.61221 0,0 z m 1.460989,0 c -0.86155,-0.64578 -1.034294,0.63944 0,0 z m 1.129227,0.0579 c -0.362241,-0.24835 -0.294569,0.24633 0,0 z m -9.858658,-0.15458 c -0.383848,-0.2247 -0.404227,0.32828 0,0 z m -7.667418,-3.51921 c -0.282536,-1.00035 0.833638,-3.27568 -0.917344,-3.17868 -0.567707,1.49228 -0.0077,3.11458 -0.203033,4.66097 -0.365191,0.82456 0.478011,2.72437 1.077092,1.21927 0.146922,-0.89582 -0.07206,-1.80379 0.04329,-2.70156 z m 3.675944,-0.13747 c -0.07064,-0.60728 0.173801,-2.43826 -0.224749,-2.31165 -0.08039,1.85082 -0.0851,3.70753 0.06173,5.55529 0.214202,-1.06838 0.117277,-2.16261 0.163019,-3.24364 z m 0.740764,0.17399 c -0.156826,-0.70186 0.348191,-2.8444 -0.376553,-2.61247 -0.127275,1.8658 -0.07365,3.73775 0.0053,5.60437 0.922745,-0.55685 0.07473,-2.13976 0.37123,-2.9919 z m 0.888545,3.14114 c 0.232307,-2.08668 0.09843,-4.18841 0.134148,-6.28227 -1.601057,0.52176 -0.315928,2.67051 -0.699522,3.89528 0.08505,0.65939 -0.460144,2.30471 0.565374,2.38699 z m 2.471741,-3.15817 c -0.18911,-0.68859 0.464868,-3.00776 -0.521348,-2.56371 -0.182097,1.72677 0.03625,3.46456 -0.0941,5.19361 0.961514,0.75532 0.549356,-1.54087 0.614609,-2.09734 -6.2e-5,-0.17752 2.4e-5,-0.35505 8.28e-4,-0.53256 z m 0.584396,0.09 c -0.08842,-0.6586 0.194401,-2.5158 -0.238074,-2.45521 -0.08986,1.81699 -0.0799,3.63892 0.02992,5.45481 0.396869,-0.95718 0.102099,-2.00321 0.208156,-2.9996 z m 0.876595,0.0612 c -0.132291,-0.67958 0.404766,-3.05334 -0.543702,-2.54374 -0.09336,1.74256 -0.04249,3.48822 -0.0017,5.23153 1.122398,0.36947 0.309327,-2.19163 0.545406,-2.68779 z m 10.920523,-1.76959 c -0.0977,0.88747 -0.0613,2.9326 0.004,3.12128 0.0253,-1.04025 0.0172,-2.08102 -0.004,-3.12128 z m -21.585771,1.56233 c 0,-1.07139 0,-2.14278 0,-3.21418 -1.364393,-0.22016 -0.768762,1.61304 -0.876597,2.42492 0,1.33448 0,2.66896 0,4.00344 1.364393,0.22016 0.768763,-1.61305 0.876597,-2.42492 0,-0.26309 0,-0.52617 0,-0.78926 z m 3.068086,0 c 0,-1.07139 0,-2.14278 0,-3.21418 -1.329789,-0.49788 -1.260549,1.27714 -1.168797,2.12126 0,1.4357 0,2.8714 0,4.3071 1.329789,0.49788 1.260548,-1.27713 1.168797,-2.12125 0,-0.36431 0,-0.72862 0,-1.09293 z m 1.022693,0 c -0.206942,-0.71454 0.473811,-3.04036 -0.521352,-2.6536 -0.182132,1.72458 0.03643,3.46017 -0.09404,5.18704 0.861646,1.65699 0.599746,-2.05143 0.615389,-2.53344 z m 3.798584,0.0731 c 0,-1.04705 0,-2.09408 0,-3.14113 -1.308837,0.0183 -0.548836,1.7461 -0.730499,2.57673 0,1.23518 0,2.47036 0,3.70554 1.308838,-0.0183 0.548836,-1.7461 0.730499,-2.57673 0,-0.18814 0,-0.37627 0,-0.56441 z m 3.506384,0.0731 c -0.145799,-0.6568 0.343094,-2.69106 -0.376219,-2.43785 -0.126742,1.74041 -0.07208,3.48727 0.0052,5.22858 0.860787,-0.45218 0.09624,-1.96604 0.37104,-2.79073 z m 0.715932,-0.32872 c -0.06573,-0.49644 0.167034,-2.27826 -0.2179,-2.01998 -0.07702,1.71251 -0.08277,3.43104 0.06177,5.14028 0.190683,-1.02915 0.115978,-2.08049 0.156134,-3.1203 z m 1.03726,0.32872 c 0,-1.0227 0,-2.04539 0,-3.06809 -1.308837,0.0183 -0.548836,1.7461 -0.730498,2.57673 0,1.18648 0,2.37296 0,3.55944 1.308837,-0.0183 0.548835,-1.7461 0.730498,-2.57672 0,-0.16379 0,-0.32758 0,-0.49136 z m 1.753193,0 c 0,-1.0227 0,-2.04539 0,-3.06809 -1.369683,-0.39373 -1.0079,1.45817 -1.0227,2.27311 0,1.28769 0,2.57537 0,3.86306 1.369683,0.39374 1.0079,-1.45816 1.0227,-2.27311 0,-0.26499 0,-0.52998 0,-0.79497 z m 1.460991,0 c 0,-1.0227 0,-2.04539 0,-3.06809 -1.369681,-0.39372 -1.007889,1.45817 -1.022692,2.27311 0,1.28769 0,2.57537 0,3.86306 1.369681,0.39373 1.007889,-1.45816 1.022692,-2.27311 0,-0.26499 0,-0.52998 0,-0.79497 z m 1.460989,-0.0731 c 0,-1.04705 0,-2.09408 0,-3.14113 -1.719444,0.75707 -0.38684,2.92662 -0.916148,4.31307 -0.308189,0.63115 0.476055,2.65694 0.913708,1.37472 0.065,-0.84826 -0.0508,-1.69815 0.0022,-2.54666 z m 0.401224,-1.49751 c -0.104483,0.88125 -0.04158,2.82347 -0.01325,3.03583 0.07044,-1.01068 0.02093,-2.02408 0.01325,-3.03583 z m 0.767572,1.49751 c -0.148748,-0.67185 0.347116,-2.74415 -0.376276,-2.49604 -0.126716,1.78221 -0.07198,3.57073 0.0049,5.35382 0.758677,0.18636 0.177744,-2.31117 0.371064,-2.85778 z m 0.547438,-1.56246 c -0.07755,0.69597 -0.09762,2.73301 0.01187,2.71889 0.0122,-0.90627 0.01031,-1.8128 -0.01187,-2.71889 z m 0.584401,0 c -0.07755,0.69597 -0.09763,2.73301 0.01187,2.71889 0.0122,-0.90627 0.01031,-1.8128 -0.01187,-2.71889 z m 0.621354,1.4808 c -0.06464,-0.74029 0.146572,-2.49408 -0.20378,-2.57665 -0.16739,1.85927 -0.09168,3.72862 -0.0045,5.58997 0.39304,-0.96264 0.104471,-2.0122 0.208124,-3.01332 z M 87.856796,132.4429 c 0.704283,-0.57551 -0.857893,-0.0726 -0.05755,0.002 z m 1.619043,-0.20552 c -0.620747,-0.64618 -0.282568,0.80894 0,0 z m 0.803547,0.002 c -0.437733,-1.08588 -0.345728,0.92953 0,0 z m 0.728257,-0.18262 c -0.750536,-0.15425 0.246106,0.78659 0,0 z m 1.024935,0.18262 c -0.947812,-1.37915 -0.809223,1.30463 0,0 z m 1.753193,0 c -0.411902,-1.03904 -1.450668,0.83289 -0.217632,0.27687 0.118502,-0.0199 0.263354,-0.14118 0.217632,-0.27687 z m 1.460991,0 c -0.411899,-1.03904 -1.45066,0.83289 -0.217632,0.27687 0.118503,-0.0199 0.263356,-0.14118 0.217632,-0.27687 z m -9.496459,0 c -0.676009,-0.78484 -0.74192,0.80786 0,0 z m 1.022699,0 c -0.789707,-0.63756 -0.826204,0.64716 0,0 z m 1.89929,-0.0817 c -0.429431,-0.45033 -0.06145,0.65223 0,0 z m 8.035459,0.0973 c -0.803389,-1.01863 -1.13939,0.71962 0,0 z m 1.168796,-0.0156 c -0.4626,-0.73771 -0.605852,0.75061 0,0 z m 1.753193,0 c -0.320412,-0.63009 -0.207203,0.40006 0,0 z m -15.823581,-0.83729 c -0.354042,0.32627 0.310124,0.5417 0,0 z m 0.921451,-0.48594 c -0.146246,-0.5533 0.526203,-2.34906 0.163051,-2.20643 -0.238588,0.71133 -0.94957,2.72648 -0.209289,2.74236 0.04126,-0.17573 0.03927,-0.35688 0.04624,-0.53593 z m 13.733333,0.32608 c -0.239345,-2.22598 -0.393952,-4.78762 -2.2013,-6.37019 0.165798,0.8341 1.013569,1.81817 1.218248,2.81534 0.458795,1.35997 0.648212,2.79054 0.801012,4.21193 0.279655,-0.003 0.117428,-0.48655 0.18204,-0.65708 z m -12.648204,-0.58952 c -0.09699,-1.09865 0.779888,-3.00167 0.46459,-3.60258 -0.751069,1.40627 -0.997615,3.00387 -1.230997,4.5612 0.639046,0.76072 0.793086,-0.56199 0.766407,-0.95862 z m 1.10636,0.47726 c 0.140783,-2.05681 0.733345,-4.05041 1.440202,-5.9765 -1.499492,1.78424 -2.282242,4.15548 -2.128761,6.482 0.259381,0.50528 0.967328,-0.12581 0.688559,-0.5055 z m 0.989629,0.54845 c 0.614247,-1.99661 0.45399,-4.20906 1.48246,-6.07879 0.232301,-1.57303 -1.191577,0.90335 -1.242738,1.43154 -0.542726,1.50386 -0.645273,3.12859 -0.550596,4.71329 0.101206,0.0694 0.252779,0.0393 0.310874,-0.066 z m 8.68234,-0.60793 c -0.175062,-1.79157 -0.421488,-3.61903 -1.207252,-5.25957 0.03982,1.76736 0.617372,3.50961 0.377498,5.28417 -0.02241,0.6941 1.139956,0.84314 0.829754,-0.0246 z m 1.239825,-0.21089 c -0.116109,-0.79972 -0.426829,-3.04247 -0.68136,-2.88542 0.168185,1.06816 -0.01364,3.38951 0.712708,3.60146 0.04881,-0.23999 -0.02849,-0.47665 -0.03136,-0.71604 z m 1.088259,-0.0898 c -0.35341,-1.50045 0.06906,1.89697 0.01386,0.0933 l -0.01111,-0.0748 z m 0.710588,0.52503 c -0.234868,-2.12589 -0.577985,-4.48417 -2.236229,-6.00957 1.040049,1.85847 1.721337,3.92298 1.945496,6.04292 0.110932,0.41881 0.409999,0.4724 0.290733,-0.0333 z m 0.80036,-0.55306 c -0.19415,-1.71331 -0.607857,-3.52455 -1.834032,-4.81167 0.934289,1.78795 1.459992,3.7631 1.739562,5.7534 0.33853,-0.032 0.0472,-0.73431 0.0945,-0.94173 z m -11.797284,-0.50808 c -0.1895,0.90674 0.175876,1.14183 0,0 z m 1.030523,-0.67322 c 0.188626,-1.85286 0.438488,-3.75672 1.322402,-5.42524 -1.70106,1.12917 -1.573539,3.37852 -1.858219,5.16527 -0.08732,0.48977 -0.384656,2.74879 0.403614,1.79 0.09523,-0.50526 0.02821,-1.02586 0.132203,-1.53003 z m 0.676412,0.66996 c -0.03064,-1.06254 0.382768,-2.95268 0.048,-3.49895 -0.345029,1.5322 -0.474324,3.10373 -0.52325,4.67068 0.533375,0.73692 0.400294,-0.94618 0.475248,-1.17173 z m 0.670128,-0.24819 c 0.03967,-1.95512 0.209034,-3.91571 0.646374,-5.82495 -1.038248,1.48757 -0.592714,3.39792 -0.891554,5.08615 -0.04228,0.48248 -0.202447,2.11571 0.232181,1.90774 0.04933,-0.38875 -0.03878,-0.78032 0.013,-1.16894 z m 1.022699,-0.71554 c -0.04445,-1.65982 0.136013,-3.31643 0.09373,-4.97625 -0.978069,2.02532 -0.455091,4.35806 -0.958331,6.47671 -0.0126,1.12667 1.294897,0.96105 0.85685,-0.1504 -0.01992,-0.45005 0.02379,-0.89997 0.0078,-1.35006 z m 1.713525,0.23323 c -0.155084,-1.80427 -0.0703,-3.72164 -0.957976,-5.36332 -0.42862,1.87599 0.08257,3.80663 -0.0705,5.70513 -0.415736,0.85566 0.665485,2.85313 1.136649,1.26395 0.01123,-0.53857 -0.22857,-1.06812 -0.108171,-1.60576 z m 1.499461,1.53404 c -0.147719,-2.25722 -0.32926,-4.63205 -1.540129,-6.60889 0.2991,2.39957 0.444691,4.81502 0.551225,7.22982 0.397916,0.0578 1.272411,0.0213 0.988904,-0.62093 z m 5.802396,-0.14439 c -0.23378,0.5682 0.19737,0.73085 0,0 z m -4.182609,-1.96591 c -0.248396,-1.61188 -0.473969,-3.47039 -1.860168,-4.54007 0.957245,1.76919 1.672115,3.69958 1.80269,5.71953 0.301671,1.16302 0.09655,-1.06487 0.05748,-1.17946 z m -12.917577,1.23371 c -0.326178,0.32068 0.290818,0.4221 0,0 z m 16.707146,-1.30318 c -0.696552,-1.82658 0.44439,2.49748 0.15556,0.61013 -0.0391,-0.20637 -0.0934,-0.40958 -0.15556,-0.61013 z m -1.948072,0.58182 c -0.404946,0.11978 0.362687,0.42044 0,0 z m -9.934754,-0.4383 c -0.404951,0.11977 0.362682,0.42044 0,0 z m 11.314076,-1.61867 c -0.449308,-0.0585 0.44389,0.41394 0,0 z m -5.031805,-0.86503 c -0.404954,0.11984 0.362696,0.42042 0,0 z m -0.313024,-1.26965 c -0.05834,-0.84464 -0.958954,-1.00782 -0.319161,-0.0957 0.177178,0.53971 0.70487,1.31008 0.319161,0.0957 z m -7.815991,0.23783 c 0.662671,-1.01134 -0.906882,0.92468 -0.201607,0.22083 z m 3.746033,0.30133 c -0.404957,0.11982 0.362703,0.4204 0,0 z m -2.583084,-0.77585 c 0.860296,-1.10172 -1.268275,1.31713 -0.122251,0.14175 z m 1.187024,-0.47513 c 0.09785,-0.43573 -0.476932,0.65011 0,0 z m 2.903352,-1.93581 c -0.320407,-0.6301 -0.207203,0.40005 0,0 z m 0.997122,-1.36526 c 0.454202,-1.68376 -2.599948,-0.29768 -0.924463,0.36955 0.313532,0.10745 0.957986,0.12351 0.924463,-0.36955 z"
         id="path1705" />
      <path
         style="fill:#86bcdd;fill-opacity:1;stroke-width:0.19479908"
         d="m 69.538261,139.46817 c 0.08344,-0.47426 0.766641,-1.63895 0.399207,-1.7275 -0.09597,0.56149 -0.766372,1.36153 -1.21856,1.35918 0.220823,-0.6815 0.78042,-1.20309 0.983343,-1.88851 -0.591556,0.19588 -0.936123,1.02041 -1.600925,1.17358 -0.05102,-0.68005 0.795323,-1.0141 1.144736,-1.52614 0.09591,-0.14059 0.585982,-0.61853 0.204194,-0.35027 -0.494955,0.26829 -0.968518,0.69961 -1.549033,0.69812 -0.237965,-0.62184 1.102644,-0.73964 1.335917,-1.34064 0.09827,-0.1358 0.609918,-0.56952 0.201115,-0.33987 -0.413976,0.19491 -0.944467,0.45124 -1.360062,0.14273 -0.103142,-0.61168 0.808834,-0.0881 0.834864,-0.52172 0.279118,-0.0702 0.911773,0.26856 0.588023,-0.16278 0.111001,-0.26874 0.81488,-0.66158 0.26793,-0.56372 0.04519,-0.30622 1.187899,-0.48006 0.773344,-0.62417 -0.590138,0.0966 0.437076,-0.764 0.419308,-1.06565 0.120305,-0.2781 0.314597,-1.26696 0.283117,-0.40925 0.131416,0.85524 -0.327148,1.55724 -0.783019,2.21914 -0.254759,0.41707 -0.03416,0.93348 0.356698,0.37809 0.309251,-0.50833 0.896797,-0.81653 1.338361,-0.82971 0.236807,-0.51881 1.502978,0.1945 1.51357,0.0391 -0.237337,-0.1807 -0.951035,-0.72506 -0.204921,-0.58921 0.805752,0.18529 1.592333,0.54882 2.226945,1.08147 0.422336,0.85722 -0.753902,1.20868 -1.322175,0.6802 -0.289003,-0.24782 -1.089801,-0.80887 -0.446547,-0.13766 0.364399,0.41142 1.125699,0.95867 1.027418,1.45189 -0.509496,-0.3666 -0.575547,1.31334 -1.198798,0.76728 -0.251289,-0.3141 0.149299,1.00762 -0.489015,0.81597 -0.529604,0.0868 -0.836479,0.56964 -1.377033,0.5684 -0.232838,0.29002 -0.54593,0.41814 -0.762889,0.0536 -0.139466,0.55906 -0.699745,0.70157 -0.67741,0.0219 -0.143808,0.24246 -0.62077,1.04893 -0.907703,0.62623 z m 1.888185,-1.80213 c -0.217387,-0.27831 -0.03598,1.20231 0.03492,0.31382 l -0.0077,-0.1611 z m 1.556472,-0.0889 c -0.290586,-0.25365 0.0271,0.84902 0.03045,0.10859 l -0.03043,-0.10859 z m 1.347401,-1.05436 c -0.444041,-0.82012 -0.137957,0.90604 0.06043,0.26061 l -0.01915,-0.12537 z m -1.285673,-0.54106 c -0.207145,-0.32779 -0.877947,-0.74028 -0.323576,-0.15612 0.04171,0.0387 0.303425,0.3755 0.323576,0.15612 z m 2.532389,-0.90527 c -0.111322,-0.28145 -1.133746,-0.75724 -1.07931,-0.45325 0.23445,0.14017 0.925611,0.9843 1.07931,0.45325 z m -2.337593,-0.45833 c -0.207147,-0.32778 -0.877941,-0.74027 -0.323572,-0.15612 0.04171,0.0387 0.303424,0.3755 0.323572,0.15612 z m 2.621581,-0.52412 c -0.324722,-0.10436 -0.928477,-0.27084 -0.470173,-0.73802 0.736177,-0.008 -0.364845,-0.56541 -0.110737,-0.94929 -0.484891,-0.21895 -0.369246,0.54429 -0.969646,0.33351 -0.515857,0.0855 -0.938947,-0.079 -1.156939,-0.38612 -0.542476,-0.45116 -1.429368,-0.55392 -1.918788,-1.14122 -0.300912,-0.96538 -1.261281,-1.79825 -2.30726,-1.70731 -0.52347,0.21877 -0.69662,-0.13317 -0.21063,-0.42745 0.437944,-0.36025 0.981867,-0.27007 1.136013,-0.91291 0.536328,-0.42799 1.299392,-0.33439 1.949511,-0.40046 0.792988,-0.15507 1.389257,0.4605 2.14656,0.53953 0.911532,-0.10482 -1.166783,-0.34712 -0.09297,-0.38712 0.568454,0.16381 1.098471,0.56459 1.732971,0.32242 0.328175,-0.0347 0.605316,-0.0763 0.144413,-0.21686 -0.415729,-0.14303 -0.883423,-0.42045 -0.440121,-0.83862 0.02926,-0.552 -1.398173,-0.63151 -0.354678,-0.65911 0.210509,-0.0229 0.780699,0.0348 0.31013,-0.14044 -0.316457,-0.24625 -0.778518,-0.29269 -1.021042,-0.16658 -0.08543,-0.80911 -0.77324,-0.19948 -0.717542,0.32144 -0.289256,0.24078 -0.420703,1.38909 -0.824857,0.96995 -0.01894,-0.70951 0.181458,-1.49008 -0.269379,-2.11937 -0.522458,-0.47067 -0.09793,-0.89624 0.442469,-0.48246 0.639918,0.81994 0.180516,-0.63078 0.301077,-0.99202 0.172847,0.60983 0.52071,0.59048 0.831088,0.0841 -0.113269,0.29475 -0.0093,0.99482 0.166013,0.36738 0.0052,-0.61193 -0.229306,-1.37398 0.202258,-1.87403 0.230865,0.48805 0.217105,1.29592 0.124246,1.64929 0.670005,-0.39502 0.311092,-1.66281 1.011891,-1.87929 0.06419,0.33918 -0.08787,1.36734 0.454689,0.64022 0.113486,-0.36788 0.748616,-0.71876 0.441874,-0.0613 0.224136,0.10493 0.653654,-0.0717 0.606317,0.44371 0.85573,-0.0938 -0.128978,1.15812 -0.517543,1.34949 0.45852,0.028 1.142663,-1.16525 1.3687,-0.37778 -0.106705,0.38599 0.546293,0.52188 -0.05764,0.74593 -0.287127,0.43913 0.643074,0.16434 0.43001,0.70603 0.391679,0.48261 -0.243808,0.90911 0.189244,1.33921 -0.334832,0.62079 -1.338454,0.0446 -1.849629,0.31082 0.397191,0.28276 1.55421,-0.0235 1.460172,0.56403 -0.268678,0.0307 -1.220979,0.33445 -0.482145,0.43367 0.896923,-0.31438 -0.558421,0.50909 0.06044,0.43018 -0.0069,0.14322 -0.0995,1.00477 -0.228881,0.52604 -0.08119,-0.45178 -0.682021,-0.97246 -0.624718,-0.16185 -0.186004,0.513 0.61823,0.20946 0.147495,0.58581 -0.219658,0.65632 -1.160501,-0.34902 -0.328488,0.0441 0.345902,-0.5622 -0.713055,-0.425 -1.049882,-0.49803 -0.109122,-0.34067 0.610197,-0.79706 -0.186597,-0.70111 -0.505821,-0.15426 -0.402757,0.16857 -0.160093,0.43346 -0.414197,-0.21451 -1.097655,-0.62413 -0.995322,0.19043 -0.190709,0.42077 -0.887834,1.11991 -1.261964,0.89346 0.256218,-0.61276 -0.432551,0.23306 0.0099,0.45498 0.402523,0.15807 0.786423,0.73281 0.165855,0.90651 -0.110485,0.78166 1.080327,0.46242 1.570022,0.67659 0.750488,0.22812 1.379809,-0.25668 2.110633,-0.30617 0.977959,-0.16487 -0.786894,-1.00078 0.174603,-1.174 1.183238,0.35973 2.50984,0.0821 3.631256,0.65225 0.45599,0.50653 -0.368749,1.20385 -0.287541,1.84178 -0.131262,1.02764 -1.195239,0.53916 -1.694293,0.10985 -0.691455,-0.38018 -1.430042,-0.78957 -2.236061,-0.80885 -0.669278,0.3276 0.03997,1.40254 -0.344846,1.8263 l -0.06654,-0.0646 -0.08287,-0.1201 z m -1.400378,-1.67289 c -0.268496,-0.15604 -1.051552,0.10241 -0.344608,0.0898 0.03735,-0.003 0.525922,0.0124 0.344608,-0.0898 z m 6.077723,-0.64165 c 0.13184,-0.48761 -1.427896,-0.80442 -0.49792,-0.28907 0.250405,0.22025 -0.11523,0.81712 0.49792,0.28907 z m -9.928712,-3.51616 c -0.01065,-0.63331 -0.813995,0.55001 -0.06212,0.0756 z m 5.600476,-1.103 c -0.465168,-0.17127 -0.745185,0.2054 -0.07362,0.0905 0.02839,0.042 0.226415,-0.0726 0.07362,-0.0905 z m 1.463261,-0.39444 c -0.336706,-0.14102 -1.390477,0.0959 -0.440567,0.0848 0.04982,-0.0115 0.649697,0.0236 0.440567,-0.0848 z m -1.06996,-0.57833 c -0.268501,-0.15604 -1.051547,0.10241 -0.344604,0.0898 0.03737,-0.003 0.525926,0.0124 0.344604,-0.0898 z m -1.452919,-0.27083 c -0.447629,-0.26839 -0.01042,-1.22652 -0.724995,-0.67312 -0.44082,-0.005 -0.81812,0.21412 -0.177246,0.38485 0.233871,-0.20863 1.423758,0.9556 0.902241,0.28827 z m 1.152955,-0.10871 c -0.388059,-0.27103 -0.750365,0.38457 0,0 z m 0.9951,-0.24822 c 0.507042,-0.48366 0.03249,-1.22768 -0.431197,-0.53242 -0.468279,0.3103 0.148228,0.0312 0.359671,-0.005 0.0017,0.10814 -0.951024,0.92762 -0.113406,0.63967 l 0.08894,-0.0457 z m -1.112291,-1.33858 c 0.538241,-0.74959 -0.990036,0.81123 -0.109603,0.13236 z m -4.257882,8.73075 c 0.151619,-0.77153 0.41715,0.35431 0.01159,0.32969 -0.03136,-0.10699 -0.0149,-0.22075 -0.01159,-0.32969 z m 3.21034,-1.3113 c 0.465171,-0.17126 0.745176,0.20541 0.07362,0.0905 -0.0284,0.042 -0.226414,-0.0726 -0.07362,-0.0905 z m -1.950378,-7.99249 c -0.682596,-0.2639 0.386206,-0.7413 0.356507,-0.0458 0.166692,0.34768 -0.234002,0.007 -0.356507,0.0458 z"
         id="path1513" />
    </g>
  </g>
</svg>
