<?xml version="1.0" encoding="UTF-8" standalone="no"?>
<svg
   xmlns:dc="http://purl.org/dc/elements/1.1/"
   xmlns:cc="http://creativecommons.org/ns#"
   xmlns:rdf="http://www.w3.org/1999/02/22-rdf-syntax-ns#"
   xmlns:svg="http://www.w3.org/2000/svg"
   xmlns="http://www.w3.org/2000/svg"
   id="svg2326"
   version="1.1"
   viewBox="0 0 162.92004 200"
   height="200mm"
   width="162.92004mm">
  <defs
     id="defs2320" />
  <metadata
     id="metadata2323">
    <rdf:RDF>
      <cc:Work
         rdf:about="">
        <dc:format>image/svg+xml</dc:format>
        <dc:type
           rdf:resource="http://purl.org/dc/dcmitype/StillImage" />
        <dc:title></dc:title>
      </cc:Work>
    </rdf:RDF>
  </metadata>
  <g
     transform="translate(-14.237901,-44.32054)"
     id="layer1">
    <g
       id="g877">
      <g
         id="layer1-5"
         transform="matrix(0.36027398,0,0,0.36027398,81.75956,101.12294)"
         style="fill:#4f3f7f;fill-opacity:0.94117647">
        <path
           id="path2183"
           d="m 74.534023,222.92206 c -5.545226,-0.76545 -24.203453,-0.77017 -10.31094,-3.39025 -2.308514,-2.58346 -17.316864,-4.37954 -9.89024,1.01994 -8.405674,-0.10905 -21.231737,-3.22102 -15.047678,-14.08662 -0.291614,-11.21893 -1.252238,-22.62351 -0.722198,-33.96205 -0.373544,-9.02728 0.897879,-18.33675 -1.365563,-27.17475 -10.925956,6.1e-4 -21.851912,0.001 -32.777868,0.002 0.2195919,-18.46535 0.4391839,-36.9307 0.6587759,-55.396044 10.8000761,-0.230387 21.6356641,0.0966 32.4026191,-0.833238 2.481203,-11.955577 2.686894,-24.673365 8.520062,-35.786098 8.045111,-18.502208 25.883775,-32.174135 45.86116,-34.910759 9.003997,-1.107154 23.220167,-7.450443 12.927877,-16.7511457 -1.28308,-12.8749433 19.17642,-10.3066029 15.60624,1.5977253 -1.1323,5.0034202 -7.60013,7.3338354 -2.43329,0.8218074 5.79707,-14.0005009 -19.253173,-9.7802022 -9.15624,1.2939879 7.22672,-1.736011 6.45294,7.1236801 0.54202,7.3436391 3.84032,4.117002 8.70416,0.834514 8.78869,-0.537795 1.45899,7.840433 15.69664,3.845543 22.49679,8.317917 23.27999,5.460341 39.33855,26.91535 43.55553,49.664911 3.58317,19.609596 2.05818,39.716162 2.68806,59.559622 -0.14517,23.1089 0.65582,46.31057 -1.05374,69.35371 -3.85718,7.70095 7.0724,20.15158 -7.44375,20.54343 -6.84186,3.0645 -8.82722,-5.71827 -16.70781,-1.19436 -5.10023,5.83067 -14.94433,4.48482 -23.45445,4.82412 -21.22011,0.30241 -42.480693,0.64806 -63.684057,-0.31954 z m 17.069917,-4.12322 c -4.643253,-1.07367 -2.304956,2.12234 0,0 z M 66.19537,210.5174 c 0.747976,-4.67716 -1.059564,-6.62967 -5.753389,-5.50485 -4.049133,-0.44096 -7.693593,-0.47725 -6.188808,4.6357 -2.598134,6.44983 15.996882,9.75144 11.942197,0.86915 z m 99.02393,4.76102 c 5.24211,1.23559 6.59541,-11.61213 1.9458,-10.84532 -3.23682,0.41251 -8.11909,-0.82043 -10.34795,0.60004 0.0888,6.34716 -1.72663,14.20967 8.40215,10.24528 z M 64.977992,200.66664 c -3.522203,-3.49325 -20.479504,-1.70455 -7.569818,0.99754 2.065138,-0.0676 6.532558,1.54389 7.569818,-0.99754 z m 105.071918,0.7452 c 6.7786,-6.44989 -22.16038,-2.3e-4 -7.08772,0.67815 2.36574,0.005 4.80522,0.0398 7.08772,-0.67815 z m -99.208944,-7.12875 c 0.09725,-11.1575 -13.872035,6.53793 -1.598084,3.66851 l 1.063952,-1.36959 z m 6.010905,0.29916 c -2.838405,-13.16351 -7.854032,10.38404 -0.0983,2.01905 z m 83.442029,0.57945 c -0.95442,-10.39182 -15.41934,3.07286 -4.0562,3.47676 2.33725,0.57256 4.81367,-0.76602 4.0562,-3.47676 z M 44.107236,158.36609 c -0.486586,-5.55973 -0.353817,10.70502 -0.37692,13.54293 -0.151382,5.53053 0.325627,16.9601 0.472209,5.19524 0.09573,-6.24554 0.09354,-12.49434 -0.09529,-18.73817 z m 6.985433,10.99486 c -1.453213,-5.68769 3.813713,-19.53756 -3.350828,-20.13119 -2.059095,10.38975 -0.593339,21.33174 -0.968038,31.93544 -1.762744,4.91284 3.097567,14.31922 3.836766,4.28827 0.366441,-5.35522 0.374603,-10.72791 0.4821,-16.09252 z M 177.5671,169.13449 c -1.0433,-5.5605 2.74207,-18.43043 -2.49808,-19.67787 -1.67967,12.19675 -0.71375,24.71387 -0.43937,37.01888 2.21696,10.52434 2.89293,-5.30613 2.93745,-17.34101 z m 4.66478,0.24135 c -0.41865,-4.62872 0.67379,-17.3397 -1.34013,-17.89211 -0.85947,12.9573 -1.3184,26.17763 0.41276,39.04232 1.23874,-6.93256 0.75671,-14.12985 0.92737,-21.15021 z M 59.468103,169.08631 c 0,-6.76035 0,-13.5207 0,-20.28105 -4.639573,-0.90792 -7.0044,0.4589 -5.7946,5.40035 0,11.72059 0,23.44117 0,35.16176 4.639573,0.90792 7.0044,-0.4589 5.7946,-5.40035 0,-4.96024 0,-9.92047 0,-14.88071 z m 105.461447,0 c -0.43257,-5.19469 0.79993,-18.4117 -1.64656,-18.95312 -0.81169,12.72599 -1.34075,25.70466 0.29459,38.35639 2.58,-0.77212 0.67867,-15.01562 1.35197,-19.40327 z m 4.6357,0 c -0.42431,-5.15044 0.78698,-18.55949 -1.64733,-18.90484 -0.76401,12.99501 -1.49902,26.33267 0.48838,39.1859 1.6382,-6.53675 0.87119,-13.57745 1.15895,-20.28106 z M 68.739453,168.50686 c 0,-6.5672 0,-13.1344 0,-19.7016 -3.70791,0.01 -8.662443,-1.22659 -6.953502,4.20027 0,11.7343 0,23.46859 0,35.20289 3.70791,-0.01 8.662443,1.22659 6.953502,-4.20027 0,-5.1671 0,-10.33419 0,-15.50129 z m 9.798122,14.19671 c -0.559946,-11.10693 0.792603,-22.55499 -1.518489,-33.42353 -8.180362,0.72739 -2.797103,15.21349 -4.570926,21.39612 -0.09621,5.89723 -0.192423,11.79447 -0.288635,17.6917 3.781665,-0.30329 7.478979,-0.37914 6.37805,-5.66429 z m 4.108896,-14.19671 c -0.420919,-5.00265 0.780026,-18.05174 -1.646791,-18.3616 -0.765455,12.61909 -1.497201,25.58907 0.487845,38.06316 1.634302,-6.33856 0.872872,-13.19216 1.158946,-19.70156 z m 5.535294,18.72741 c 2.629663,-9.94573 0.647531,-20.72115 0.852661,-30.98479 1.900127,-6.18201 -4.897108,-10.41037 -3.92086,-2.06645 -0.05347,11.32212 -0.697346,22.76336 0.719909,34.00765 l 1.048358,-0.28797 z m 58.205125,-18.72741 c 0,-6.5672 0,-13.1344 0,-19.7016 -3.70791,0.01 -8.66244,-1.22659 -6.9535,4.20027 0,11.7343 0,23.46859 0,35.20289 3.70791,-0.01 8.66244,1.22659 6.9535,-4.20027 0,-5.1671 0,-10.33419 0,-15.50129 z m 3.18074,-10.14055 c -0.52219,-4.61731 -0.34066,9.31814 -0.38433,12.15392 -0.12417,4.61167 0.27882,15.64147 0.48142,4.66237 0.0982,-5.60484 0.0945,-11.2134 -0.0971,-16.81629 z m 7.24952,10.14055 c -1.16254,-4.83153 3.04322,-21.48783 -4.02985,-18.45893 -0.94904,12.22797 -0.94899,24.68984 -8e-5,36.91783 6.86332,5.34692 2.90939,-15.46586 4.02993,-18.4589 z m 3.47675,0 c -0.42093,-5.00265 0.78004,-18.05174 -1.64677,-18.3616 -0.76547,12.61908 -1.49727,25.58909 0.48787,38.06316 1.63422,-6.33858 0.87284,-13.19215 1.1589,-19.70156 z m 12.45139,-8.40215 c -0.64258,-2.50943 -0.34118,13.74237 -0.32338,18.59457 0.48908,9.77748 0.60871,-16.83082 0.32338,-18.59457 z m -76.452828,8.1124 c -1.187146,-4.5783 2.607746,-20.97876 -4.361437,-17.60757 -1.362585,12.06922 -0.810169,24.29711 -1.229573,36.43998 4.664945,0.88001 7.148392,-0.38491 5.818146,-5.39958 -0.07571,-4.47761 -0.151424,-8.95522 -0.227136,-13.43283 z m 4.896668,-0.38633 c -0.70306,-4.62388 1.56474,-18.14127 -2.139675,-17.5155 -1.383966,11.59274 -1.405348,23.4148 -0.827911,35.06584 4.336556,6.28429 2.488616,-13.11752 2.967586,-17.55034 z m 9.27135,0.74441 c -0.14042,-6.55852 2.07642,-24.57018 -8.11245,-17.9669 0,12.14706 0,24.29411 0,36.44117 2.98764,-0.71658 9.51695,2.10852 8.11245,-3.00019 0,-5.15803 0,-10.31605 0,-15.47408 z m 13.907,-0.71449 c 0,-6.39626 0,-12.79252 0,-19.18878 -3.04365,0.66791 -7.80114,-0.28569 -9.86094,1.31304 -0.20892,12.35496 -0.41783,24.70991 -0.62673,37.06487 3.28533,-0.41057 8.20247,0.81067 10.48767,-0.60004 0,-6.19636 0,-12.39273 0,-18.58909 z m 11.58916,0.0666 c 0,-6.37405 0,-12.7481 0,-19.12215 -10.46149,-2.57075 -10.29743,8.09746 -9.52503,15.94444 0.11987,7.43382 0.30977,14.86635 0.46196,22.29958 2.72086,-0.90028 9.21646,1.97419 9.06329,-1.80012 -1.5e-4,-5.7737 2.9e-4,-11.5491 -2.2e-4,-17.32175 z m -23.48081,-6.08435 c -0.9532,-2.6547 -0.19595,24.94286 0.16169,8.4664 0.0277,-2.82262 0.005,-5.64785 -0.16169,-8.4664 z M 77.431322,146.48728 c -3.642362,-4.89085 -5.519664,3.93726 0,0 z m 5.215149,0 c -3.981376,-4.97276 -0.713859,4.55841 0,0 z m 6.953502,0 c -4.676633,-4.79507 -7.227784,4.51874 0,0 z m 6.953502,0 c -4.363386,-4.12624 -8.86369,3.05836 -0.851087,0.81851 l 0.62247,-0.36851 z m 4.635655,0 c -3.120485,-4.67047 -2.73111,4.51223 0,0 z m 9.27135,0 c -4.70234,-3.91487 -12.41063,2.21518 -2.48126,1.0675 0.75464,-0.26213 2.11137,-0.10281 2.48126,-1.0675 z m 13.907,0 c -3.72395,-3.52553 -16.37468,1.05101 -5.21514,1.15894 1.60893,-0.25095 4.00913,0.2368 5.21514,-1.15894 z m 11.58916,0 c -4.11172,-3.51379 -15.49197,0.9521 -4.56728,1.15894 1.40226,-0.22039 3.60529,0.18667 4.56728,-1.15894 z m 10.43025,0 c -3.92311,-3.86942 -10.74765,2.16709 -2.1268,1.0675 0.67274,-0.21647 1.87193,-0.1802 2.1268,-1.0675 z m 10.43026,0 c -4.67664,-4.79508 -7.22769,4.51876 0,0 z m 3.47675,0 c -3.12049,-4.67047 -2.73111,4.51223 0,0 z m -93.003097,-0.79886 c -9.351399,-0.82399 -1.171781,1.76416 0,0 z M 17.00255,137.04598 C 17.697764,122.64005 18.641409,107.962 16.507351,93.678155 13.873873,91.340101 4.9769618,90.064163 7.318588,96.218476 c 0,15.983664 0,31.967334 0,47.950994 2.767726,-0.90184 8.936789,1.97078 9.127833,-1.79041 0.185376,-1.77769 0.370753,-3.55539 0.556129,-5.33308 z m 12.789188,5.29031 c 1.168844,-16.73393 0.543079,-33.54758 0.703453,-50.318085 -3.863066,0 -7.726133,0 -11.589199,0 0,17.383755 0,34.767505 0,52.151265 3.521622,-0.41142 8.381207,1.2182 10.885746,-1.83318 z m 8.815858,-24.95701 c 0,-8.45369 0,-16.90738 0,-25.361075 -3.70791,0.01002 -8.662443,-1.226595 -6.953502,4.200271 0.136565,15.669214 -0.395939,31.370944 0.606695,47.012464 6.564326,2.18605 6.986834,-2.86242 6.346807,-7.69092 0,-6.05358 0,-12.10716 0,-18.16074 z m 6.953502,0.71454 c -0.370844,-7.26456 0.794977,-23.19022 -1.651448,-24.337242 -0.957753,16.191352 -0.957759,32.483152 -7.3e-5,48.674512 2.169444,0.65879 1.293412,-13.1059 1.632005,-18.44762 0.01372,-1.96318 0.01949,-3.92642 0.01952,-5.88965 z m 5.7946,-0.085 c -1.567623,-6.65808 3.14956,-23.765669 -3.133299,-24.83492 -1.945121,15.23953 -1.128504,30.79497 -1.275056,46.16458 1.853224,11.91266 6.112917,-3.14982 4.376939,-7.91981 0.03445,-4.46984 0.02972,-8.94004 0.03142,-13.40985 z m 7.844864,0.37451 c -2.06781,-7.88603 3.692881,-22.063651 -4.107675,-26.324887 -3.153888,0.0449 -0.590217,6.676243 -1.419384,9.399147 0,14.23729 0,28.47459 0,42.71188 4.654492,0.89715 7.057391,-0.43022 5.773618,-5.39995 -0.08219,-6.7954 -0.164373,-13.59079 -0.246559,-20.38619 z m 9.538891,0.28952 c 0,-8.49871 0,-16.99742 0,-25.496137 -9.432909,-2.34882 -7.083783,9.571187 -7.802686,15.494477 -0.180154,11.5612 -0.835403,23.22396 0.463073,34.72527 5.361266,2.51075 8.934214,0.54272 7.339748,-5.22777 -4.5e-5,-6.49861 -9e-5,-12.99723 -1.35e-4,-19.49584 z m 9.409602,16.21391 c 0.669351,-13.14456 1.763086,-26.50184 -0.195696,-39.560632 -4.079794,-5.600444 -7.246634,-0.375325 -5.737154,4.45099 0.166745,14.550382 -0.502977,29.159042 0.812664,43.659362 5.41645,2.8674 4.463439,-5.82419 5.120186,-8.54972 z m 4.497416,-16.21391 c -0.369144,-7.10357 0.79097,-22.689245 -1.651152,-23.793996 -0.957942,15.828476 -0.957942,31.759566 -1.8e-5,47.588046 2.165403,0.65879 1.294304,-12.81538 1.631622,-18.0402 0.01374,-1.91792 0.01952,-3.83589 0.01955,-5.75385 z m 6.953502,-0.71462 c -1.810341,-6.78339 3.788168,-22.63211 -3.628085,-24.276205 -2.034731,13.320875 -0.592849,27.084105 -0.947156,40.578875 -2.237395,5.96413 4.047156,14.11175 4.351702,3.72201 0.297877,-6.66975 0.191922,-13.35035 0.223539,-20.02468 z M 156.55,118.2872 c -1.78978,-6.85661 4.06031,-22.761229 -3.35347,-24.626855 -2.02745,12.507785 -0.63886,25.485575 -0.87843,38.174705 -0.97229,4.0867 1.61133,18.92399 3.52589,7.38619 0.59062,-6.9598 0.57934,-13.95533 0.70601,-20.93404 z m 3.7439,0.38545 c -0.36914,-7.10357 0.79096,-22.68924 -1.65111,-23.793994 -0.958,15.828474 -0.958,31.759564 -4e-5,47.588044 2.1654,0.65879 1.29427,-12.81538 1.6316,-18.0402 0.0137,-1.91792 0.0195,-3.83589 0.0196,-5.75385 z m 4.63565,-0.64782 c -0.31193,-8.43459 0.61257,-17.25771 -1.1589,-25.427787 -1.92469,15.796237 -1.12626,31.893197 -0.69079,47.792317 1.61184,8.6884 1.78995,-9.26475 1.79039,-12.48701 0.0437,-3.29231 0.0591,-6.58494 0.0593,-9.87752 z m 4.6357,0.0683 c -0.37085,-7.26456 0.79498,-23.190223 -1.65149,-24.337239 -0.9577,16.191359 -0.95771,32.483149 -5e-5,48.674509 2.1694,0.65878 1.29344,-13.1059 1.63202,-18.44762 0.0137,-1.96318 0.0195,-3.92642 0.0195,-5.88965 z m 7.58989,23.57839 c 0.85513,-15.86327 -0.15791,-31.83609 -1.43448,-47.664802 -1.65922,-2.897586 -1.12996,10.328512 -1.43905,13.910772 0.0611,11.89097 -0.66057,23.89496 0.98238,35.69516 0.64819,2.35965 2.04419,-2.22785 1.89115,-1.94113 z m 4.97876,-23.86809 c -0.3287,-4.57591 0.4516,-19.258619 -0.81096,-18.858276 -1.05319,14.901366 -2.26368,30.156286 0.23688,44.933556 1.23132,-7.14323 0.36837,-17.64814 0.57408,-26.07528 z m -85.897417,0.96459 c -1.521071,-7.74935 2.739317,-21.710456 -3.689232,-25.191735 -3.296344,8.152695 -1.087588,18.036235 -1.788375,26.860015 0,7.52449 0,15.04899 0,22.57349 4.644499,0.921 6.927271,-0.49429 5.681601,-5.40003 -0.068,-6.28058 -0.135996,-12.56116 -0.203994,-18.84174 z m 4.952647,-0.77147 c -0.74231,-7.48857 1.53608,-18.924679 -1.824812,-24.121714 -2.06056,14.798664 -1.446632,29.957374 -1.298856,44.899434 3.978328,10.16956 2.921988,-14.09307 3.122468,-19.26215 z m 9.25361,1.54523 c -2.51766,-7.46303 5.0193,-25.480463 -5.93727,-26.00899 -3.40439,0.7778 -0.81484,6.82875 -1.69985,9.82297 -0.16787,13.21804 -0.33572,26.43608 -0.50358,39.65412 2.99791,-0.72111 9.55658,2.11582 8.15625,-3.00019 -0.005,-6.82264 -0.0104,-13.64527 -0.0156,-20.46791 z m 13.907,0 c -2.55146,-7.5809 5.2558,-26.084943 -6.49568,-26.104542 -5.28977,-1.109442 -2.83065,4.915525 -3.43643,8.118642 -0.17548,13.81803 -0.35095,27.63606 -0.52643,41.45409 3.28057,-0.41126 8.19632,0.81144 10.47592,-0.60004 -0.006,-7.62264 -0.0109,-15.24588 -0.0174,-22.86815 z m 11.6069,-1.51527 c 0,-8.32778 0,-16.65557 0,-24.983348 -3.04176,0.667933 -7.80472,-0.285748 -9.85842,1.31308 -0.20596,16.217988 -0.41192,32.435988 -0.61787,48.653978 3.28086,-0.41126 8.19569,0.81145 10.47633,-0.60004 -1e-5,-8.12789 -3e-5,-16.25578 -4e-5,-24.38367 z m 10.43025,0.0666 c 0,-8.30557 0,-16.61114 0,-24.916703 -3.70791,0.01001 -8.66244,-1.226594 -6.9535,4.200271 0,15.211052 0,30.422092 0,45.633142 3.70791,-0.01 8.66244,1.22659 6.9535,-4.20027 0,-6.90548 0,-13.81096 0,-20.71644 z m 3.18359,-12.3941 c -0.4135,-7.056095 -0.36888,9.56317 -0.37187,12.3941 -0.13867,5.50941 0.22825,23.33126 0.46369,8.83534 0.0968,-7.07573 0.0883,-14.15637 -0.0918,-21.22944 z m 23.17739,0.51519 c -0.42469,-6.470962 -0.36321,9.6472 -0.37231,12.45836 -0.0961,4.06017 0.13777,22.26591 0.43957,9.70146 0.12663,-7.38568 0.12841,-14.77533 -0.0673,-22.15982 z m -60.26796,5.21515 c -0.63086,-2.89471 -0.33991,10.71415 -0.36835,14.26396 0.36338,13.01346 0.78642,-13.19556 0.36835,-14.26396 z M 78.590269,89.700313 c -4.581043,-6.416763 -9.672612,6.082215 -0.900604,1.365695 l 0.66565,-0.624681 0.234954,-0.740839 z m 4.056202,-0.06833 c -2.848966,-7.423445 -2.682027,8.852382 0,0 z m 6.953502,0.06833 c -5.787719,-9.369964 -5.838616,9.112706 0,0 z m 5.794556,0 c -5.78765,-9.369981 -5.838555,9.112719 0,0 z m 5.794601,0 c -4.00623,-7.99294 -3.137251,7.768374 0,0 z m 9.05072,0.289528 c -4.33895,-6.909365 -12.805535,4.625362 -1.75724,1.940729 1.0089,0.162398 2.27818,-0.837378 1.75724,-1.940729 z m 13.91288,0 c -2.51043,-6.437846 -16.66591,0.167479 -6.45721,2.010097 1.7428,-0.41821 6.83466,1.164861 6.45721,-2.010097 z m 11.80391,-0.289528 c -2.67895,-7.343856 -17.71613,2.33923 -5.2151,2.317848 1.74417,-0.179288 5.47187,0.563992 5.2151,-2.317848 z m 10.43025,0 c -3.0018,-7.760498 -12.20294,4.299619 -1.7927,2.209195 1.13246,0.01205 1.97696,-1.137278 1.7927,-2.209195 z m -95.031192,0 c -4.267348,-4.663817 -4.446108,4.53353 0,0 z m 8.112405,0 c -4.363372,-4.126194 -8.863695,3.058307 -0.851087,0.818476 l 0.62247,-0.368494 z m 9.049233,-0.08673 c -3.828202,-4.128921 -10.569253,2.495402 -1.773595,1.150624 0.522523,-0.177505 1.898787,-0.217883 1.773595,-1.150624 z m 81.346304,0.08673 c -3.98106,-4.972471 -0.71406,4.558085 0,0 z m 5.37551,-0.579452 c 2.34796,-3.055776 12.89054,-0.625115 9.21602,-9.037097 -0.72157,-5.478015 -1.48158,-15.56739 -3.88719,-17.953288 0.47925,7.289924 3.65423,18.374152 0.49839,23.687126 -1.41513,-9.479515 -1.05287,-19.369876 -3.81428,-28.728816 -2.26293,-11.314804 -7.53291,-22.218916 -17.2493,-28.950986 -3.59228,-3.120331 -5.99335,-5.069727 -1.48676,-0.229041 6.44162,5.963167 1.94398,7.686995 -2.76976,1.535333 -2.75265,-2.704089 -17.9026,-8.356374 -9.56661,-0.672677 3.8802,5.587995 6.7068,21.248958 8.17301,21.479705 -0.32264,-3.711938 -3.38821,-18.62223 0.78672,-8.066416 3.17005,14.444882 3.57928,29.32222 4.63522,44.038858 11.10638,2.122978 4.6939,-12.216742 4.77788,-18.477107 -2.41101,-10.509668 -3.61994,-26.406142 -11.83528,-32.250429 -2.61484,0.742989 -0.93011,-7.645518 -3.12932,-7.227393 8.79087,3.720083 11.38751,18.449216 14.47621,27.563069 3.03253,9.887935 2.00675,20.609993 4.93692,30.39186 1.5861,-10.710179 -1.03601,-21.891782 -2.79354,-32.578698 0.51898,-5.739467 -5.49815,-15.321118 -2.92609,-17.543654 8.44801,9.472401 10.63777,22.946549 12.99708,35.056449 1.64819,3.810194 1.97791,22.86565 -0.63461,9.571695 -1.41777,-12.055859 -2.68094,-24.879789 -8.80832,-35.571212 3.44352,14.744328 4.56939,30.02082 5.88558,45.022587 0.75561,1.288787 3.45811,0.670485 2.51803,-1.059868 z m 5.05475,0.579452 c -3.12041,-4.670399 -2.73118,4.512094 0,0 z m 4.63565,0 c -3.12036,-4.670368 -2.73113,4.512066 0,0 z m 4.6357,0 c -3.12041,-4.670336 -2.73121,4.512044 0,0 z m 6.9535,0 c -3.98115,-4.97255 -0.71406,4.558177 0,0 z M 46.589165,69.627932 c 0.984116,-11.481836 -3.376711,8.220852 -3.065252,11.617218 -1.148073,14.489175 3.17416,-12.197592 3.065252,-11.617218 z m 5.542828,5.168014 c -0.006,-6.898509 5.005633,-21.354851 3.439346,-22.519342 -4.311391,10.819142 -8.357883,22.62592 -7.19376,34.368087 3.418591,0.668369 2.8569,-9.332163 3.754414,-11.848745 z m 7.81946,6.377117 c 1.298589,-13.105903 3.757705,-26.081828 7.078643,-38.766154 -9.049753,13.025492 -12.2052,29.137172 -13.597108,44.700131 3.528559,-0.293829 6.878195,-1.58882 6.518465,-5.933977 z M 174.73143,67.338818 c -2.60327,-11.927978 -7.97383,-23.654784 -16.9389,-32.1365 10.14852,14.910745 14.35599,33.027354 17.07665,50.619944 3.30873,2.293524 0.24994,-15.863431 -0.13775,-18.483444 z m 6.54715,12.873107 c -1.21767,-12.052108 -4.35473,-24.292614 -10.99223,-34.55047 4.28762,12.294525 8.46176,24.736037 9.84418,37.777902 1.45824,7.362405 1.36331,-0.947104 1.14805,-3.227432 z M 69.634539,75.503561 c 1.633023,-14.148992 5.899208,-27.79911 10.273774,-41.253723 -6.39224,5.000164 -10.119342,14.12599 -12.943753,21.997607 -3.334813,9.656884 -4.423726,19.851469 -5.243172,29.976117 7.817775,1.713824 7.131082,-4.778019 7.913151,-10.720001 z m 10.265353,-2.688625 c 1.922329,-12.409838 3.019195,-26.257472 9.780111,-36.907878 0.374802,8.978591 -3.213504,18.172237 -3.470555,27.38862 0.813467,6.425611 -5.745539,22.562668 2.894998,22.234899 1.690215,-19.545594 2.994243,-39.925907 11.154334,-58.16948 0.78134,-7.195896 -12.828547,15.595724 -9.06824,3.216712 3.424642,-6.17384 -8.687588,6.148691 -9.476763,9.459435 -7.50958,14.140094 -8.105513,30.659852 -9.374753,46.32841 8.682831,0.772852 6.276755,-7.580543 7.560868,-13.550718 z M 82.68782,83.036558 C 82.533885,76.3899 85.56694,57.894454 83.799278,58.316323 83.171475,66.205932 78.339778,81.510619 82.30126,85.28738 Z m 13.098208,1.520616 c 1.23917,-15.779863 1.182823,-31.70684 3.498483,-47.401057 3.715759,3.263306 -1.350209,18.084177 -0.275633,25.320896 0.64843,6.7606 -3.006108,19.737458 1.016672,22.982563 2.7569,-19.7112 1.55835,-40.07008 6.64053,-59.485297 -6.34249,-1.954199 -4.89837,7.330169 -9.03668,13.359283 -4.173795,15.048795 -5.980072,30.788726 -5.837727,46.377433 1.257176,1.153921 3.424748,0.324444 3.994355,-1.153821 z m 13.567502,0.797189 c 0.71576,-19.152053 2.0582,-38.408737 0.88068,-57.543089 -3.31274,-3.884796 -4.71131,14.103703 -5.32457,19.165327 -0.94312,12.695337 -2.39121,25.444123 -1.92614,38.178596 1.44336,1.103957 5.11219,1.796722 6.37003,0.199166 z m 14.40279,-12.168607 c -1.28096,-15.679989 -1.03576,-32.098001 -6.99771,-46.852401 -5.15101,-0.732697 -1.67591,14.601257 -2.8126,19.887998 0.30513,12.761757 -0.67728,25.718557 1.2329,38.3437 2.60188,2.329021 11.69495,3.618983 9.01982,-2.536515 -0.14747,-2.947594 -0.29494,-5.895188 -0.44241,-8.842782 z m 11.58026,4.635653 c -2.0268,-16.502958 -2.68513,-34.294456 -11.68238,-48.782996 -4.44235,-4.915887 -5.66832,-3.934687 -2.76347,1.046058 2.87643,6.045827 2.54042,16.336118 3.79923,24.674337 2.53283,9.653931 -3.15428,25.433453 4.71672,31.357973 5.37679,1.26898 8.01007,-0.353505 6.14947,-5.869183 -0.0732,-0.80873 -0.14638,-1.617459 -0.21957,-2.426189 z m 34.22867,2.709523 c -0.92269,-18.001233 -5.60252,-38.018213 -20.9872,-49.219676 2.99195,6.037651 8.99766,14.366008 11.46069,22.130014 4.13006,9.854283 5.22666,20.522916 6.66361,30.987669 2.28235,5.302885 3.09116,-2.354643 2.8629,-3.898007 z m -57.1001,-13.69338 c -1.14675,-1.961663 -0.0485,16.263026 0.18529,4.186391 l -0.0451,-2.193745 -0.14053,-1.992646 z m 23.10012,-11.035547 c -1.90771,1.215589 1.13578,5.821212 0,0 z M 60.07217,41.605253 c 3.91894,-4.70763 3.837756,-8.130636 -0.397302,-1.792213 -3.01202,3.750945 -8.536026,15.505463 -1.901615,5.168322 l 1.077692,-1.576994 z m 9.704242,-5.719217 c 7.395739,-10.055969 -7.352313,4.517726 -8.156022,8.833983 -6.298539,13.338221 4.480664,-5.292866 8.156022,-8.833983 z m 10.777701,-5.434507 c 9.104031,-8.992277 -8.032433,2.880042 -8.363489,7.49213 -2.965508,4.232297 -4.394454,10.280824 -0.03942,2.790643 2.443839,-3.695859 5.292506,-7.130506 8.402909,-10.282773 z m 7.307463,-1.221846 c 10.434931,-14.001526 -15.354676,14.789528 0,0 z M 165.24137,221.01375 c 7.54386,-0.85613 0.16752,1.7931 0,0 z M -2.8237137,145.71974 c -2.4727288,-10.25195 -0.9895764,-21.32082 -1.4486062,-31.90223 0,-8.03907 0,-16.078132 0,-24.117197 4.53162005,0.229103 6.6820185,-0.04695 2.3178049,1.920043 0.2474078,17.146514 -0.6134838,34.355504 0.6404591,51.452124 2.04308149,3.87114 6.9264822,3.66528 -1.5096578,2.64726 z"
           style="fill:#4f3f7f;fill-opacity:0.94117647;stroke-width:1.15891707" />
      </g>
      <path
         style="opacity:1;fill:none;fill-opacity:1;stroke:#c2b8d9;stroke-width:0.50507671;stroke-miterlimit:4;stroke-dasharray:none;stroke-opacity:1"
         d="m 94.446146,65.360371 c -5.745633,0 -10.371052,4.625419 -10.371052,10.371055 V 212.90969 c 0,5.7456 4.625419,10.37102 10.371052,10.37102 h 55.154874 c 5.74563,0 10.37105,-4.62542 10.37105,-10.37102 V 75.731426 c 0,-5.745636 -4.62542,-10.371055 -10.37105,-10.371055 z m 27.577434,5.206137 a 0.83638508,0.83638508 0 0 1 0.83612,0.836084 0.83638508,0.83638508 0 0 1 -0.83612,0.836121 0.83638508,0.83638508 0 0 1 -0.83612,-0.836121 0.83638508,0.83638508 0 0 1 0.83612,-0.836084 z m -11.89507,4.348903 a 1.4218546,1.4218546 0 0 1 1.42251,1.421616 1.4218546,1.4218546 0 0 1 -1.42251,1.42251 1.4218546,1.4218546 0 0 1 -1.42162,-1.42251 1.4218546,1.4218546 0 0 1 1.42162,-1.421616 z m 6.04039,0.752888 h 11.70936 c 0.3707,0 0.66873,0.298027 0.66873,0.668728 0,0.37066 -0.29803,0.669619 -0.66873,0.669619 H 116.1689 c -0.3707,0 -0.66873,-0.29874 -0.66873,-0.669619 0,-0.370701 0.29803,-0.668728 0.66873,-0.668728 z M 88.066366,85.203196 H 155.9808 V 203.63548 H 88.066366 Z M 122.02358,207.56635 a 5.6874188,5.6874188 0 0 1 5.68729,5.68729 5.6874188,5.6874188 0 0 1 -5.68729,5.68725 5.6874188,5.6874188 0 0 1 -5.68728,-5.68725 5.6874188,5.6874188 0 0 1 5.68728,-5.68729 z"
         id="rect4978" />
      <path
         id="path4685"
         d="m 48.206359,166.76536 c 0.637037,-1.76279 1.167755,-3.56107 1.724225,-5.35025 -1.838417,1.65546 -3.366789,3.89642 -5.779629,4.70826 -0.0043,-2.06843 2.286686,-4.19637 3.283137,-6.25872 0.239962,-0.5672 2.072505,-2.93094 1.110617,-2.14236 -2.253407,1.63565 -4.210546,3.92136 -6.951605,4.68669 0.233124,-2.62379 4.081029,-4.44258 5.317933,-7.03886 -2.021402,0.18064 -5.059441,3.09884 -6.644138,1.22952 2.443406,-2.12826 5.354282,-3.84762 7.507026,-6.34294 -1.539121,0.75131 -7.131664,2.35192 -5.812148,-0.7969 1.278416,-0.65755 3.305189,0.62095 3.109616,-1.19105 1.117458,-0.14562 4.854284,1.33175 2.423418,-0.69601 2.536487,-0.78146 1.285742,-3.49847 3.640326,-4.70379 2.43112,-3.78093 4.679936,-8.37066 3.781212,-12.97505 -1.5472,-2.92526 -4.489988,-5.54705 -7.751147,-6.31506 -1.619788,0.1904 -6.117582,0.72932 -3.167657,-1.72645 1.347013,-1.85593 4.701865,-0.68083 3.329235,-3.58896 2.358069,-0.26526 4.840734,-2.83279 7.864915,-2.35465 2.110505,-0.18014 4.222604,-0.34131 6.333784,-0.51342 0.335025,-3.26213 1.111025,-6.83742 -0.850465,-9.76905 -1.746768,-1.65179 -0.654532,-4.81781 1.481776,-2.34872 0.68394,0.32144 2.589891,3.23662 2.248781,1.57249 -0.37987,-2.73241 -0.732903,-5.488551 -1.64053,-8.106423 2.209164,-3.491896 4.308422,6.189783 6.485231,1.465106 0.783729,-3.028127 -2.186633,1.813027 -1.398465,-1.697608 -0.33909,-1.866183 1.038246,-6.056445 2.009039,-2.134825 0.404066,1.323689 0.35189,7.08713 1.598143,3.128315 0.354966,-1.341208 1.346818,-7.596811 2.954819,-4.816436 0.491209,0.633742 -0.264479,4.17998 0.527891,3.199029 0.808099,-1.047286 2.579345,-4.349676 3.493348,-2.716227 -1.486053,2.830595 2.963511,0.01246 2.333491,3.13987 2.281091,-0.375658 0.937584,3.681348 3.713105,3.37324 -0.581435,2.150469 2.33459,3.269789 -0.205371,5.042449 -0.509704,1.05378 2.767379,0.0621 1.869109,2.23509 1.813223,2.01731 -1.144918,3.9135 0.765024,5.65354 -0.611473,2.74407 -1.690895,4.95433 -4.787531,4.97386 -1.318962,2.15649 4.694533,-0.44099 1.390332,1.82854 -2.030476,1.16905 0.871788,0.92782 -0.36981,2.91763 -0.207589,2.11926 -0.713892,0.60214 -1.190376,-0.55197 -1.151306,-3.98587 -3.576117,0.42603 -1.698537,2.03183 2.295036,-0.54779 -2.720323,4.05304 -3.077486,0.58961 2.163273,1.45951 2.912543,-0.8645 0.625903,-1.47804 -1.960794,-0.14449 -2.159771,1.64113 -4.027672,-0.32989 -1.257921,-0.57583 -2.754056,-2.60974 -0.234016,-1.49878 2.31979,-1.37502 -2.783724,-2.74406 -2.11868,-0.18245 -1.231019,1.49749 -1.905985,-2.89567 -2.822497,0.009 0.09119,2.75439 -3.375334,6.51182 -5.77193,5.35408 1.139333,-2.7006 -1.977557,0.88801 -0.0035,1.86948 1.673923,1.21554 3.097919,2.45779 1.206882,4.35734 -1.798429,3.05708 4.188538,1.65024 5.937788,2.50041 3.530481,0.58521 6.898784,-0.72437 10.251075,-1.56591 3.798016,-0.1778 -4.368128,-4.31546 0.48054,-4.66793 2.200919,0.93704 2.993049,-2.01947 5.067754,0.37891 1.921975,1.52838 0.219892,-1.59031 2.293084,0.0777 2.903267,1.62528 7.619623,-0.19726 9.236435,3.49785 -0.45161,2.98128 -1.456489,6.25549 -2.859838,9.08126 -2.58953,2.04581 -5.80756,-1.48636 -8.31006,-2.47843 -2.720853,-1.23901 -5.751313,-3.34039 -8.820698,-2.48634 -1.432399,2.47834 0.12031,5.64001 -0.977338,8.32468 -0.490779,2.86421 -2.610282,7.37484 -6.030805,4.67676 -1.063839,-0.65305 -3.512741,-2.34839 -1.433132,-0.23343 1.451718,1.27737 4.866561,5.68532 1.455242,5.02314 0.808849,2.06218 -2.656256,5.14967 -4.217125,3.06759 1.136833,2.97303 -1.252904,4.93515 -3.867428,4.90187 -1.583192,1.85942 -4.174174,1.1379 -5.792968,3.13839 -1.735618,-2.4349 -1.839534,0.4031 -3.405598,1.19054 -1.258767,-0.46311 -0.623718,-3.82023 -1.815587,-1.02298 -0.252369,1.09876 -3.547186,3.30525 -3.016491,0.85613 z m 8.05234,-6.84834 c -1.092727,-0.48597 -0.0069,4.42953 0.178171,1.07005 l -0.04454,-0.57013 z m 6.866158,-0.80252 c -1.276968,-1.11467 0.119112,3.73106 0.133818,0.47706 l -0.133696,-0.47706 z m 5.551701,-5.17397 c -1.762797,-1.00703 0.986048,4.62982 0.528768,0.96862 l -0.207154,-0.52883 z m -5.280434,-1.83705 c -0.9103,-1.44046 -3.8581,-3.25317 -1.421937,-0.6861 0.183275,0.1702 1.333384,1.65011 1.421937,0.6861 z m 10.914911,-4.17102 c -0.77774,-1.97241 -4.799213,-1.84297 -1.92105,0.23306 0.493306,0.69332 2.525631,1.42985 1.92105,-0.23306 z m -19.538273,-1.62772 c 1.557328,-1.36943 0.65609,-3.92522 3.426589,-2.6549 2.202562,-1.54757 4.761103,-0.50021 7.030815,0.32249 1.365062,0.52022 2.546523,0.93832 0.764927,-0.2918 -1.294339,-1.05403 -2.588691,-2.10805 -3.883039,-3.16207 4.107822,0.94768 8.056032,2.43333 11.870163,4.20676 2.921614,1.43976 1.763375,-2.81825 -0.527615,-1.20026 -1.083128,0.67652 0.255394,-2.16351 -1.170542,-2.69512 1.218402,-0.66272 4.440393,-0.13023 1.540751,-1.7939 -1.030302,-0.94786 -0.194377,-4.21473 -2.392439,-2.35037 -0.457066,1.87973 -5.784495,1.45115 -6.837335,0.42605 -2.137077,-1.98204 -5.124005,-3.22714 -7.98893,-3.7335 -1.684307,2.96937 -0.670621,7.19935 -2.865543,10.2078 -1.873636,1.41042 -3.265884,6.51962 0.338013,3.40526 l 0.342166,-0.32357 0.352019,-0.36284 z m 3.487108,-7.19724 c 0.799531,-4.98984 1.878741,3.29409 0.08586,1.5127 -0.07293,-0.50101 -0.08437,-1.00753 -0.08586,-1.5127 z m 11.35883,-2.65108 c -1.179925,-0.68572 -4.621009,0.45029 -1.514352,0.39458 0.164155,-0.0134 2.311155,0.0543 1.514352,-0.39458 z m 26.306996,-3.29068 c 0.509854,-2.20085 -5.82176,-2.6094 -1.786556,-0.85477 0.565092,0.83168 0.367578,3.36732 1.715115,1.35335 l 0.07154,-0.49858 z m -43.23008,-14.98071 c -0.525963,-3.53809 -2.541221,3.08105 0,0 z m 15.836755,0 c -0.550022,-1.61841 -4.158513,-0.66211 -1.17469,0.34257 0.502642,0.39904 1.445473,0.79639 1.17469,-0.34257 z m 5.500749,-1.53648 c -3.209059,-0.8757 0.71087,-3.55383 -2.465839,-4.82976 -0.880616,-0.72783 -4.472291,-0.30406 -1.66627,-1.55784 2.020147,0.23217 2.227571,-0.15874 0.653089,-1.61648 -1.307229,-0.83134 -2.139081,2.39593 -2.190867,-0.52411 -2.837441,-0.23061 -3.911358,4.19001 -4.699252,6.51876 -3.223773,3.15699 2.238372,2.20064 4.092076,2.1259 2.012793,1.42877 4.41611,2.04663 6.925627,1.41421 1.725809,-0.0385 2.133604,-0.32151 0.337154,-1.01355 -0.328573,-0.17238 -0.657146,-0.34476 -0.985718,-0.51713 z m 10.223767,-1.70608 c -0.647451,-1.45465 -5.561621,-0.84786 -1.778214,0.10631 0.651297,0.22077 1.426101,0.96784 1.778214,-0.10631 z m -6.9501,-1.6046 c -2.044202,-0.75259 -3.274681,0.90266 -0.323518,0.39771 0.12477,0.18496 0.994949,-0.31905 0.323518,-0.39771 z m 6.420307,-1.73521 c -1.489969,-0.61662 -5.056172,0.4708 -1.498071,0.39148 0.175882,0.006 2.674901,-3.4e-4 1.498071,-0.39148 z m -4.691931,-2.53956 c -1.179907,-0.68569 -4.62103,0.45027 -1.514379,0.39458 0.164164,-0.0134 2.311144,0.0543 1.514379,-0.39458 z m -5.366559,-0.63095 c -1.10915,-1.64985 -3.577984,-0.66638 -0.878496,0.31012 0.215291,0.0994 0.893176,0.11086 0.878496,-0.31012 z m 4.048371,-1.03681 c -1.70531,-1.19097 -3.297533,1.68994 0,0 z m -6.466381,-1.61549 c 1.387118,-1.37168 -0.700305,-2.00709 -1.786604,-0.60189 -1.288132,0.0797 -3.823091,0.2298 -1.226993,1.26119 1.20013,0.62233 1.931509,-1.09728 3.013597,-0.6593 z m 11.763132,-0.11381 c 0.411067,-1.73583 -3.190943,0.62561 -4.308165,1.26974 -0.09453,0.25105 3.064055,-0.72082 4.00081,-1.09985 z m -0.784703,-2.03375 c 2.43085,-2.39835 -5.006578,1.51507 -1.158334,0.58605 l 0.592208,-0.26385 z M 65.212705,98.774239 c -2.070881,-3.23258 -0.07121,4.450801 0.534822,1.210081 l -0.210722,-0.574896 -0.3241,-0.635306 z m 7.385853,34.252531 c 2.044197,-0.7526 3.274681,0.90266 0.323518,0.39771 -0.12477,0.18496 -0.994949,-0.31905 -0.323518,-0.39771 z"
         style="fill:#4f3f7e;stroke-width:0.85604101;fill-opacity:0.94117647" />
      <path
         id="path4689"
         d="m 50.587487,162.54058 c 1.610405,-4.25463 1.676356,-8.82206 2.299567,-13.2606 1.019389,-2.43483 0.598811,2.39442 2.231369,1.30773 0.999447,2.73042 0.438574,5.92276 1.100446,8.81507 0.632062,2.49655 -0.626096,4.79749 -2.348603,6.50729 -1.173201,1.8789 -0.686404,-0.22638 -0.624857,-1.31101 0.108728,-1.83504 0.449225,-3.70436 0.329834,-5.51708 -0.811694,2.43317 -1.565877,7.77643 -4.064768,7.84769 0.08753,-1.5114 0.607338,-2.96221 1.077012,-4.38909 z m -5.228537,2.91096 c 1.465077,-3.81526 4.317798,-7.13864 5.071716,-11.18615 -2.071875,2.07296 -3.380207,6.17675 -6.861487,6.95971 -0.870783,-2.08429 4.104542,-4.21874 4.733126,-6.75071 1.082904,-1.03543 1.403312,-3.95035 -0.545377,-1.66437 -1.60383,1.70177 -4.380662,4.85251 -6.678184,3.61945 2.412233,-2.75 6.807792,-3.65357 8.222649,-7.40077 -0.927405,-1.46292 1.405925,-4.05277 1.752731,-1.47686 0.386358,2.23703 -2.446636,1.72589 -0.777791,3.99369 1.663495,4.40757 0.545923,9.77413 -3.22706,12.7495 -0.512541,0.34811 -1.050996,1.10962 -1.690323,1.15651 z m 11.569925,-8.6337 c 0.05617,-3.80278 0.06494,-7.6748 1.056836,-11.35991 -1.700575,-0.93406 -1.447322,5.07078 -2.327016,1.72231 1.060489,-5.28657 6.073519,-0.89549 8.110266,1.2068 2.122774,2.38612 5.931001,4.91223 5.168684,8.50084 -2.866979,-1.01743 -3.918965,-4.67409 -6.007626,-6.79136 -0.850177,-0.94584 -3.478535,-4.75886 -3.644305,-3.62941 2.561339,3.94947 6.257554,7.47437 7.166274,12.26007 -0.240855,2.05549 -3.175707,3.52455 -2.365819,0.24686 -0.468878,-1.80631 -1.810653,6.90581 -3.286679,2.74124 -0.192644,-1.86963 -0.201187,-4.45431 -1.414771,-5.71666 0.2845,2.74534 0.938495,7.54344 -1.979926,8.57581 -0.512876,-2.54028 -0.431154,-5.17513 -0.475918,-7.75659 z m 4.202824,-4.88672 c -0.617263,-1.71373 -3.369513,-5.5708 -3.678402,-1.47511 -0.318476,3.20763 1.29275,-2.42458 2.228265,0.84772 0.966329,1.26255 2.588207,5.41374 3.431396,4.85004 -0.512605,-1.46995 -1.252571,-2.85136 -1.981259,-4.22265 z m 6.298875,-1.47738 c -1.914116,-2.25223 -6.008454,-4.03501 -6.182192,-6.88112 2.958324,-2.46536 6.179904,1.20043 8.987278,2.26947 1.588589,0.31881 5.988219,4.41265 2.163705,3.49407 -3.002883,-1.07672 -5.731302,-3.59326 -8.505484,-4.55014 2.940969,2.96286 6.612118,5.38536 8.858387,8.94321 -0.79273,1.84312 -4.221324,-2.7908 -5.321694,-3.27549 z m -24.261395,-0.34928 c 0.425651,-1.71959 6.203727,-0.38262 2.190622,0.3282 -0.698665,0.14137 -1.655489,0.27941 -2.190622,-0.3282 z m 25.005139,-6.43874 c -1.235916,-0.45524 -5.790498,-3.39448 -1.971405,-2.5063 2.92263,0.86572 5.954729,1.8085 8.416891,3.64847 1.50794,2.70615 -4.912541,-0.33847 -6.445486,-1.14217 z M 53.55919,142.48046 c 0.125955,-1.48284 2.667572,-6.517 1.792472,-2.34074 -0.507405,1.62842 -1.51087,3.02199 -2.359757,4.48086 0.189095,-0.71338 0.37819,-1.42674 0.567285,-2.14012 z m 21.495966,-0.40565 c -3.229409,-2.50176 3.254107,-1.8757 1.629618,0.5549 -0.599196,0.23178 -1.162799,-0.25479 -1.629618,-0.5549 z m 11.393749,-3.61137 c -1.958901,-1.27683 -7.918822,-3.12433 -3.344129,-5.25153 2.092592,-1.57553 -5.356604,-3.88907 -1.166256,-4.0342 2.972207,0.42402 4.604328,2.43293 7.814101,2.38054 1.427594,0.60398 3.751286,1.04739 1.651351,-0.92541 0.597434,-1.63383 2.568961,-0.12408 2.76743,1.04258 3.60746,0.89524 -1.343237,1.58223 -1.242612,2.09654 3.322617,-0.45296 4.613333,3.67895 2.270527,5.56869 -0.123921,4.19405 -5.566746,0.88535 -7.620992,-0.28975 l -0.559633,-0.2902 z m 1.685861,-6.68349 c -1.3451,-0.74799 -2.364804,5.07897 -0.507602,1.57398 0.233662,-0.49718 0.474756,-1.01571 0.507602,-1.57398 z m -12.63824,6.78977 c -3.521609,-1.49418 0.878521,-4.49511 1.865249,-1.47794 0.126123,2.17052 0.727312,3.79258 -1.865249,1.47794 z m -8.08454,-1.83095 c 1.219483,-0.53476 5.549494,0.29965 2.1456,0.38479 -0.165585,0.001 -3.872969,0.0629 -2.1456,-0.38479 z m -4.076182,-1.96833 c -2.394309,-2.08308 -7.532673,-1.80025 -7.204477,-6.04944 -2.209236,-3.93155 -7.117412,-7.60785 -11.719097,-5.43641 -1.161806,-1.51471 3.726055,-2.36629 5.232781,-2.21101 0.09961,-1.5252 0.181489,-5.546 2.239257,-4.53894 -2.429473,1.93316 0.933011,3.09733 1.833622,1.48226 2.580211,1.47508 -2.061905,-2.56633 1.373475,-2.0012 3.197979,-0.44098 6.649616,-0.58458 9.296903,1.49779 1.991695,0.23377 3.761759,1.16223 4.033367,2.70989 3.031295,1.96909 -3.005053,3.2547 -3.423039,4.81843 -4.72657,-0.0949 0.130607,4.07736 0.258638,6.04562 -2.113643,1.09804 -0.517475,2.85385 0.646856,3.54598 -0.27002,0.94878 -2.173001,0.97263 -2.568286,0.13703 z m -2.568115,-4.16973 c -0.285766,-1.4884 -3.992838,-3.93307 -1.565369,-1.16443 0.270722,1.1362 -0.267695,3.25504 1.565369,1.16443 z m 15.836764,-10.77879 c -1.739095,-0.76195 -2.2819,-3.1158 0.211994,-1.77037 3.3005,0.41382 4.872768,5.97993 0.737358,2.52281 l -0.45619,-0.35457 z m 1.063568,-2.09304 c -1.151427,-0.58992 -4.95207,-3.27668 -1.444726,-2.27311 2.317302,0.74196 6.532809,2.12855 7.130652,3.83526 -2.010252,0.16714 -3.986116,-0.53791 -5.685926,-1.56215 z m -11.122055,-1.49659 c 2.044189,-0.7526 3.27466,0.90266 0.323517,0.39771 -0.124772,0.18496 -0.99497,-0.31906 -0.323517,-0.39771 z m 11.770555,-1.18395 c -1.61389,-0.31184 -4.56309,-2.12507 -1.038944,-1.56541 2.907968,0.48191 6.567084,1.23568 8.911274,2.11245 -1.724235,2.50676 -5.578113,-0.004 -7.87233,-0.54704 z m -15.555208,-2.95733 c 0.5962,-2.53772 1.449139,-4.43063 -0.926085,-6.53844 -1.464038,-1.48772 -1.189494,-4.33858 1.348015,-2.60261 1.762359,0.0316 0.763646,4.39662 1.935352,1.07383 -0.525569,-2.21892 1.227269,-4.528606 2.858731,-2.17128 2.920113,0.72884 0.504093,-5.215665 2.410759,-1.5909 -0.514533,0.93198 -0.548348,4.49776 0.342314,3.03251 -0.938143,-2.82866 3.499261,-0.84731 0.797368,0.58975 -0.317086,1.33162 2.451429,3.68906 -0.0743,1.68676 -2.112875,-2.03126 -6.038199,-1.78506 -5.122024,1.93911 -0.08964,2.642 -2.087923,6.11358 -2.93082,7.51652 -0.669353,-0.78042 -0.612919,-1.96881 -0.639313,-2.93525 z m 14.699184,0.40722 c -2.928127,-1.10833 3.640545,-0.45292 4.719957,-0.63832 1.346288,0.14601 6.62387,-1.30827 3.895195,0.88947 -2.808586,0.6898 -5.827049,0.43096 -8.615152,-0.25115 z m 0.427999,-2.54732 c -4.006809,-0.87117 2.504993,-0.66979 3.765001,-0.82311 1.949346,0.15479 4.230312,-1.03068 5.603307,-1.34407 -0.525068,3.00575 -5.077354,3.37194 -7.604439,2.53843 -0.587958,-0.12375 -1.175916,-0.24749 -1.763869,-0.37125 z m -3.12637,-2.36722 c 1.840294,-1.27197 5.495234,-0.29799 7.904202,-1.49562 1.333667,-0.63929 5.075017,-3.09063 3.296189,0.26453 -2.328806,2.423 -6.226409,1.76624 -9.279466,1.73325 -0.651746,-0.093 -1.338651,-0.16874 -1.920925,-0.50216 z m 4.410439,-2.69417 c 1.829815,-0.51713 3.577201,-2.51978 0.517521,-1.29539 -1.756776,0.78262 -8.105488,3.41956 -5.877527,-0.48726 -1.191704,-1.77787 -3.552145,-3.228778 -1.295521,-5.638969 0.43155,-1.166461 1.695834,-6.864937 2.009253,-2.85101 1.69557,2.959031 4.35153,-5.583466 4.469717,-0.577072 1.996902,-0.358775 1.423304,2.895239 3.868633,2.638352 0.215641,2.921202 -4.001634,5.189479 -6.329751,5.276629 0.40363,-1.47151 4.259611,-3.414729 3.379912,-4.231508 -1.799017,1.294132 -6.005339,3.479018 -4.166398,5.379298 0.199118,2.11445 4.53387,-1.53955 5.839162,-2.40838 0.772341,-2.108723 4.469927,-2.408097 2.678107,0.34642 -2.464015,0.97131 -1.190246,4.29551 -4.391813,4.59193 -1.27771,0.54906 -4.687211,1.00555 -1.6915,-0.25749 l 0.46195,-0.22792 0.529019,-0.25763 z m -2.996137,-6.495161 c 1.352962,-1.15064 3.730892,-4.424414 0.838048,-1.672165 -1.078487,1.132136 -4.30363,3.990036 -3.774731,4.431896 1.047755,-0.84233 1.995768,-1.801882 2.936683,-2.759731 z m 8.132385,3.852181 c 3.606965,-3.17955 1.683982,3.35633 0,0 z M 64.938701,96.468267 c -2.45527,-3.175185 4.027736,2.985996 0.75636,0.884225 l -0.357025,-0.395441 z"
         style="fill:#4f3f7e;fill-opacity:0.94117647;stroke-width:0.85604101" />
    </g>
  </g>
</svg>
