<?xml version="1.0" encoding="UTF-8" standalone="no"?>
<svg
   xmlns:dc="http://purl.org/dc/elements/1.1/"
   xmlns:cc="http://creativecommons.org/ns#"
   xmlns:rdf="http://www.w3.org/1999/02/22-rdf-syntax-ns#"
   xmlns:svg="http://www.w3.org/2000/svg"
   xmlns="http://www.w3.org/2000/svg"
   version="1.1"
   id="svg2"
   viewBox="0 0 200.00002 200.00002"
   height="200.00002"
   width="200.00002">
  <defs
     id="defs4" />
  <metadata
     id="metadata7">
    <rdf:RDF>
      <cc:Work
         rdf:about="">
        <dc:format>image/svg+xml</dc:format>
        <dc:type
           rdf:resource="http://purl.org/dc/dcmitype/StillImage" />
        <dc:title></dc:title>
      </cc:Work>
    </rdf:RDF>
  </metadata>
  <g
     transform="translate(-272.04724,-426.1811)"
     id="layer1">
    <path
       id="path4140-1-6-9"
       d="m 372.04725,427.18111 a 98.99999,98.99999 0 0 0 -99,98.99998 98.99999,98.99999 0 0 0 99,99.00002 98.99999,98.99999 0 0 0 99,-99.00002 98.99999,98.99999 0 0 0 -99,-98.99998 z m 60.66819,58.93724 c 2.85369,0 5.20191,0.86159 7.04494,2.5857 1.84299,1.66466 2.76438,3.83486 2.76438,6.51022 0,2.67532 -0.92139,4.84552 -2.76438,6.51019 -1.84303,1.60521 -4.19125,2.40834 -7.04494,2.40834 -2.85372,0 -5.20194,-0.80313 -7.04496,-2.40834 -1.84302,-1.66467 -2.7657,-3.83487 -2.7657,-6.51019 0,-2.67536 0.92268,-4.84556 2.7657,-6.51022 1.84302,-1.72411 4.19124,-2.5857 7.04496,-2.5857 z m -110.86826,22.47239 c 2.91315,0 5.737,0.5354 8.47178,1.60552 2.79427,1.0107 5.26072,2.52727 7.40101,4.54863 2.14028,1.96192 3.86474,4.39981 5.1727,7.31299 1.30796,2.91314 1.96159,6.21263 1.96159,9.89865 0,3.68606 -0.65363,6.98551 -1.96159,9.89869 -1.30796,2.91314 -3.03242,5.37961 -5.1727,7.40098 -2.14029,1.96191 -4.60674,3.47848 -7.40101,4.54862 -2.73478,1.01067 -5.55863,1.51619 -8.47178,1.51619 -2.97262,0 -5.85625,-0.50552 -8.6505,-1.51619 -2.73481,-1.07014 -5.17273,-2.58671 -7.31299,-4.54862 -2.14029,-2.02137 -3.86475,-4.48784 -5.1727,-7.40098 -1.24851,-2.91318 -1.87226,-6.21263 -1.87226,-9.89869 0,-3.68602 0.62375,-6.98551 1.87226,-9.89865 1.30795,-2.91318 3.03241,-5.35107 5.1727,-7.31299 2.14026,-2.02136 4.57818,-3.53793 7.31299,-4.54863 2.79425,-1.07012 5.67788,-1.60552 8.6505,-1.60552 z m 28.85854,1.0708 15.3394,0 5.79546,19.44127 c 0.65396,2.25918 1.24914,4.54764 1.78423,6.86626 0.5945,2.25921 1.21827,4.60742 1.87223,7.04496 l 0.35739,0 c 0.65397,-2.43754 1.24783,-4.78575 1.78292,-7.04496 0.5945,-2.31862 1.2196,-4.60708 1.87358,-6.86626 l 5.79544,-19.44127 14.62597,0 -15.51676,44.58866 -17.65703,0 -16.05283,-44.58866 z m 57.93046,0 32.28301,0 0,44.58866 -15.33807,0 0,-32.63905 -16.94494,0 0,-11.94961 z m -86.789,11.23618 c -2.61592,0 -4.48852,1.01103 -5.61811,3.03242 -1.12959,1.96191 -1.69488,4.63762 -1.69488,8.02639 0,3.3888 0.56529,6.09308 1.69488,8.11445 1.12959,1.96191 3.00219,2.94305 5.61811,2.94305 2.61589,0 4.48849,-0.98114 5.61808,-2.94305 1.12959,-2.02137 1.69488,-4.72565 1.69488,-8.11445 0,-3.38877 -0.56529,-6.06448 -1.69488,-8.02639 -1.12959,-2.02139 -3.00219,-3.03242 -5.61808,-3.03242 z"
       style="fill:#ffffff;fill-opacity:1" />
  </g>
</svg>
