<?xml version="1.0" encoding="UTF-8" standalone="no"?>
<!-- Created with Inkscape (http://www.inkscape.org/) -->

<svg
   xmlns:osb="http://www.openswatchbook.org/uri/2009/osb"
   xmlns:dc="http://purl.org/dc/elements/1.1/"
   xmlns:cc="http://creativecommons.org/ns#"
   xmlns:rdf="http://www.w3.org/1999/02/22-rdf-syntax-ns#"
   xmlns:svg="http://www.w3.org/2000/svg"
   xmlns="http://www.w3.org/2000/svg"
   xmlns:xlink="http://www.w3.org/1999/xlink"
   xmlns:sodipodi="http://sodipodi.sourceforge.net/DTD/sodipodi-0.dtd"
   xmlns:inkscape="http://www.inkscape.org/namespaces/inkscape"
   width="611.37451"
   height="60"
   viewBox="0 0 611.37447 60.000002"
   id="svg2"
   version="1.1"
   inkscape:version="0.91 r13725"
   sodipodi:docname="logo.svg">
  <defs
     id="defs4">
    <linearGradient
       id="linearGradient4302"
       osb:paint="solid">
      <stop
         style="stop-color:#000000;stop-opacity:1;"
         offset="0"
         id="stop4304" />
    </linearGradient>
    <linearGradient
       inkscape:collect="always"
       xlink:href="#linearGradient4302"
       id="linearGradient4306"
       x1="-16.231701"
       y1="623.22986"
       x2="77.054008"
       y2="623.22986"
       gradientUnits="userSpaceOnUse" />
  </defs>
  <sodipodi:namedview
     id="base"
     pagecolor="#ffffff"
     bordercolor="#666666"
     borderopacity="1.0"
     inkscape:pageopacity="0.0"
     inkscape:pageshadow="2"
     inkscape:zoom="1"
     inkscape:cx="305.1578"
     inkscape:cy="-67.651632"
     inkscape:document-units="px"
     inkscape:current-layer="layer1"
     showgrid="false"
     inkscape:window-width="1366"
     inkscape:window-height="703"
     inkscape:window-x="1366"
     inkscape:window-y="0"
     inkscape:window-maximized="1"
     units="px"
     fit-margin-top="0"
     fit-margin-left="0"
     fit-margin-right="0"
     fit-margin-bottom="0"
     inkscape:showpageshadow="false"
     showborder="true"
     showguides="true"
     inkscape:guide-bbox="true">
    <sodipodi:guide
       position="139.82556,0.47931003"
       orientation="0,1"
       id="guide4224" />
    <sodipodi:guide
       position="121.08723,100.53492"
       orientation="0,1"
       id="guide4226" />
  </sodipodi:namedview>
  <metadata
     id="metadata7">
    <rdf:RDF>
      <cc:Work
         rdf:about="">
        <dc:format>image/svg+xml</dc:format>
        <dc:type
           rdf:resource="http://purl.org/dc/dcmitype/StillImage" />
        <dc:title></dc:title>
      </cc:Work>
    </rdf:RDF>
  </metadata>
  <g
     inkscape:label="Layer 1"
     inkscape:groupmode="layer"
     id="layer1"
     transform="translate(-65.535262,637.04587)">
    <g
       transform="matrix(1.0164847,-0.14522475,0.16554781,0.8916985,-9.4514205,36.600423)"
       style="font-style:normal;font-weight:normal;font-size:77.78379822px;line-height:125%;font-family:sans-serif;letter-spacing:0px;word-spacing:0px;fill:#216778;fill-opacity:1;stroke:none;stroke-width:1px;stroke-linecap:butt;stroke-linejoin:miter;stroke-opacity:1"
       id="text4347" />
    <g
       id="g4258"
       transform="matrix(1.8750004,0,0,1.8750004,-57.343377,504.91534)">
      <g
         id="g4253">
        <path
           inkscape:connector-curvature="0"
           style="fill:#5e92f3;fill-opacity:1;stroke:none;stroke-width:1.5;stroke-linejoin:round;stroke-miterlimit:4;stroke-dasharray:none;stroke-opacity:1"
           d="m 85.191177,-585.09942 a 8.759808,8.759808 0 0 1 -3.762849,0.80382 8.759808,8.759808 0 0 1 -8.643691,-8.87598 8.759808,8.759808 0 0 1 8.395646,-8.63191 l 0.09638,-7.24236 a 16.009304,16.009304 0 0 0 -15.739984,15.77802 16.009304,16.009304 0 0 0 15.79513,16.22103 16.009304,16.009304 0 0 0 7.243179,-1.64445 l -3.383813,-6.40817 z"
           id="path4215" />
        <path
           inkscape:connector-curvature="0"
           style="fill:#1565c0;fill-opacity:1;stroke:none;stroke-width:1.5;stroke-linejoin:round;stroke-miterlimit:4;stroke-dasharray:none;stroke-opacity:1"
           d="m 89.425276,-579.13812 a 16.009304,16.009304 0 0 0 8.127276,-13.70436 16.009304,16.009304 0 0 0 -2.421186,-8.63779 l -6.039961,4.00478 a 8.759808,8.759808 0 0 1 1.212346,4.53649 8.759808,8.759808 0 0 1 -4.261705,7.39382 l 3.38323,6.40706 z"
           id="path4213" />
        <path
           inkscape:connector-curvature="0"
           style="fill:#003c8f;fill-opacity:1;stroke:none;stroke-width:1.5;stroke-linejoin:round;stroke-miterlimit:4;stroke-dasharray:none;stroke-opacity:1"
           d="m 94.601295,-602.28134 a 16.009304,16.009304 0 0 0 -12.364369,-6.75877 l -0.09629,7.25532 a 8.759808,8.759808 0 0 1 6.418533,3.51005 l 6.042126,-4.0066 z"
           id="path4202" />
      </g>
      <g
         style="font-style:normal;font-variant:normal;font-weight:600;font-stretch:normal;font-size:41.1359024px;line-height:125%;font-family:Asap;-inkscape-font-specification:'Asap, Semi-Bold';text-align:start;letter-spacing:0px;word-spacing:0px;writing-mode:lr-tb;text-anchor:start;fill:#003c8f;fill-opacity:1;stroke:none;stroke-width:1px;stroke-linecap:butt;stroke-linejoin:miter;stroke-opacity:1"
         id="text4185">
        <path
           d="m 117.19555,-578.56598 q -1.15181,0 -1.68657,-0.28795 -0.49363,-0.28796 -0.49363,-0.90499 l 0,-26.16244 q 0,-0.78158 0.32908,-1.1518 0.37023,-0.37023 1.15181,-0.37023 l 8.55627,0 q 3.7845,0 6.66401,1.80998 2.87952,1.80998 2.87952,6.8697 0,3.53769 -1.68658,5.51221 -1.64543,1.97452 -3.74336,2.67383 -2.0568,0.65818 -3.70224,0.65818 l -5.05971,0 0,10.16057 q 0,1.19294 -2.1802,1.19294 l -1.0284,0 z m 7.81582,-16.00187 q 1.6043,0 2.83838,-0.90499 1.23407,-0.94612 1.23407,-3.29087 0,-2.26248 -1.27521,-3.16747 -1.27521,-0.90499 -3.00292,-0.90499 l -4.40154,0 0,8.26832 4.60722,0 z"
           id="path4267"
           inkscape:connector-curvature="0" />
        <path
           d="m 137.81749,-578.56598 q -2.26247,0 -2.26247,-0.82272 0,-0.12341 0.16454,-0.69931 l 9.29671,-26.65607 q 0.24682,-0.78158 2.09793,-0.78158 l 1.80998,0 q 1.80998,0 2.09794,0.78158 l 9.29671,26.65607 q 0.12341,0.41136 0.12341,0.69931 0,0.82272 -1.97453,0.82272 l -1.27521,0 q -1.80998,0 -2.09793,-0.78158 l -1.89225,-5.63562 -10.53079,0 -1.89225,5.63562 q -0.28796,0.78158 -1.80998,0.78158 l -1.15181,0 z m 13.82166,-11.02442 -3.00292,-9.0499 q -0.32908,-0.94613 -0.5759,-2.55043 l -0.16454,0 q -0.0411,0.24682 -0.20568,1.06953 -0.16455,0.82272 -0.41136,1.4809 l -3.08519,9.0499 7.44559,0 z"
           id="path4269"
           inkscape:connector-curvature="0" />
        <path
           d="m 183.819,-594.23876 q 0.78158,0 1.15181,0.37022 0.37022,0.32909 0.37022,1.11067 l 0,11.27124 q 0,1.76884 -2.92065,2.46815 -2.92065,0.65818 -6.54061,0.65818 -6.66402,0 -9.95489,-3.57883 -3.29087,-3.57882 -3.29087,-11.06555 0,-14.72666 13.61598,-14.72666 1.89226,0 3.86678,0.37023 2.01566,0.37022 3.29087,1.02839 1.31635,0.61704 1.31635,1.35749 0,0.49363 -0.41136,1.31635 -0.37022,0.78158 -0.90499,1.39862 -0.53477,0.61704 -0.94612,0.61704 -0.12341,0 -1.0284,-0.41136 -0.86386,-0.41136 -2.22134,-0.74045 -1.31635,-0.32909 -3.04406,-0.32909 -4.15472,0 -6.08811,2.50929 -1.89225,2.50929 -1.89225,7.48674 0,10.16057 7.77468,10.16057 2.09793,0 3.94905,-0.37023 l 0,-6.29379 -4.03132,0 q -0.5759,0 -0.86385,-0.41136 -0.24682,-0.41136 -0.24682,-1.35748 l 0,-1.06954 q 0,-0.94612 0.24682,-1.35748 0.28795,-0.41136 0.86385,-0.41136 l 7.93923,0 z"
           id="path4271"
           inkscape:connector-curvature="0" />
        <path
           d="m 193.19285,-578.64825 q -0.78159,0 -1.15181,-0.37023 -0.37022,-0.37022 -0.37022,-1.1518 l 0,-25.75108 q 0,-0.82272 0.37022,-1.1518 0.37022,-0.37023 1.15181,-0.37023 l 14.39756,0 q 0.57591,0 0.82272,0.41136 0.28795,0.41136 0.28795,1.35749 l 0,1.06953 q 0,0.94613 -0.28795,1.35749 -0.24681,0.41135 -0.82272,0.41135 l -10.53079,0 0,7.15765 9.37899,0 q 0.5759,0 0.82272,0.41136 0.28795,0.41136 0.28795,1.35749 l 0,1.06953 q 0,0.94613 -0.28795,1.35748 -0.24682,0.41136 -0.82272,0.41136 l -9.37899,0 0,7.81582 10.57193,0 q 0.5759,0 0.82272,0.41136 0.28795,0.41136 0.28795,1.35749 l 0,1.06953 q 0,0.94613 -0.28795,1.35749 -0.24682,0.41136 -0.82272,0.41136 l -14.4387,0 z"
           id="path4273"
           inkscape:connector-curvature="0" />
        <path
           d="m 226.22947,-578.56598 q -2.1802,0 -2.1802,-1.19294 l 0,-26.5738 q 0,-1.19294 2.1802,-1.19294 l 1.06953,0 q 2.18021,0 2.18021,1.19294 l 0,10.6542 12.42304,0 0,-10.6542 q 0,-1.19294 2.1802,-1.19294 l 1.06953,0 q 2.18021,0 2.18021,1.19294 l 0,26.5738 q 0,1.19294 -2.18021,1.19294 l -1.06953,0 q -2.1802,0 -2.1802,-1.19294 l 0,-11.27124 -12.42304,0 0,11.27124 q 0,1.19294 -2.18021,1.19294 l -1.06953,0 z"
           id="path4275"
           inkscape:connector-curvature="0" />
        <path
           d="m 253.19085,-578.56598 q -2.26247,0 -2.26247,-0.82272 0,-0.12341 0.16454,-0.69931 l 9.29671,-26.65607 q 0.24682,-0.78158 2.09793,-0.78158 l 1.80998,0 q 1.80998,0 2.09794,0.78158 l 9.29671,26.65607 q 0.12341,0.41136 0.12341,0.69931 0,0.82272 -1.97453,0.82272 l -1.27521,0 q -1.80998,0 -2.09793,-0.78158 l -1.89225,-5.63562 -10.53079,0 -1.89225,5.63562 q -0.28796,0.78158 -1.80998,0.78158 l -1.15181,0 z m 13.82166,-11.02442 -3.00292,-9.0499 q -0.32908,-0.94613 -0.5759,-2.55043 l -0.16454,0 q -0.0411,0.24682 -0.20568,1.06953 -0.16455,0.82272 -0.41136,1.4809 l -3.08519,9.0499 7.44559,0 z"
           id="path4277"
           inkscape:connector-curvature="0" />
        <path
           d="m 281.42165,-578.56598 q -2.18021,0 -2.18021,-1.19294 l 0,-26.16244 q 0,-0.78158 0.32909,-1.1518 0.37022,-0.37023 1.15181,-0.37023 l 7.65127,0 q 5.14199,0 7.61015,1.89226 2.50929,1.89225 2.50929,5.67675 0,2.38588 -1.27522,4.11359 -1.27521,1.72771 -3.49655,2.59156 l 0,0.16455 q 0.90499,0.32908 1.72771,1.48089 0.82272,1.11067 1.48089,2.7561 l 3.49655,8.72081 q 0.16455,0.57591 0.16455,0.69932 0,0.78158 -2.22134,0.78158 l -1.23408,0 q -1.80998,0 -2.13907,-0.78158 l -3.2086,-8.06264 q -0.74044,-1.68657 -1.76884,-2.34475 -0.98726,-0.65817 -3.04406,-0.65817 l -2.34474,0 0,10.6542 q 0,1.19294 -2.18021,1.19294 l -1.02839,0 z m 7.65127,-16.4955 q 1.56317,0 2.71497,-1.19294 1.15181,-1.23408 1.15181,-2.87951 0,-1.76885 -1.11067,-2.71497 -1.11067,-0.98727 -3.04406,-0.98727 l -4.15472,0 0,7.77469 4.44267,0 z"
           id="path4279"
           inkscape:connector-curvature="0" />
        <path
           d="m 312.78262,-578.56598 q -1.85111,0 -2.05679,-0.78158 l -9.09104,-26.65607 q -0.1234,-0.45249 -0.1234,-0.69931 0,-0.82272 2.22133,-0.82272 l 1.0284,0 q 1.80998,0 2.13907,0.98726 l 6.29379,19.25161 0.41136,1.68657 0.16455,0 0.45249,-1.68657 6.37606,-19.25161 q 0.32909,-0.98726 2.13907,-0.98726 l 0.94613,0 q 2.22134,0 2.22134,0.82272 0,0.24682 -0.12341,0.69931 l -9.09104,26.65607 q -0.20568,0.78158 -2.05679,0.78158 l -1.85112,0 z"
           id="path4281"
           inkscape:connector-curvature="0" />
        <path
           d="m 331.38376,-578.64825 q -0.78158,0 -1.1518,-0.37023 -0.37022,-0.37022 -0.37022,-1.1518 l 0,-25.75108 q 0,-0.82272 0.37022,-1.1518 0.37022,-0.37023 1.1518,-0.37023 l 14.39757,0 q 0.5759,0 0.82272,0.41136 0.28795,0.41136 0.28795,1.35749 l 0,1.06953 q 0,0.94613 -0.28795,1.35749 -0.24682,0.41135 -0.82272,0.41135 l -10.53079,0 0,7.15765 9.37899,0 q 0.5759,0 0.82271,0.41136 0.28795,0.41136 0.28795,1.35749 l 0,1.06953 q 0,0.94613 -0.28795,1.35748 -0.24681,0.41136 -0.82271,0.41136 l -9.37899,0 0,7.81582 10.57193,0 q 0.5759,0 0.82271,0.41136 0.28796,0.41136 0.28796,1.35749 l 0,1.06953 q 0,0.94613 -0.28796,1.35749 -0.24681,0.41136 -0.82271,0.41136 l -14.43871,0 z"
           id="path4283"
           inkscape:connector-curvature="0" />
        <path
           d="m 359.35104,-578.3603 q -2.75611,0 -4.93631,-0.57591 -2.13906,-0.5759 -3.33201,-1.43975 -1.02839,-0.78158 -1.02839,-1.39862 0,-0.78159 0.82271,-1.93339 0.82272,-1.19294 1.35749,-1.19294 0.24681,0 1.0284,0.45249 1.27521,0.65818 2.50929,1.06954 1.23407,0.41136 2.87951,0.41136 1.85112,0 3.08519,-0.86386 1.27522,-0.90499 1.27522,-2.67383 0,-1.11067 -0.65818,-1.85112 -0.61704,-0.78158 -1.56316,-1.27521 -0.94613,-0.53477 -2.6327,-1.23408 l -1.43976,-0.61704 q -1.89225,-0.82271 -3.16746,-1.7277 -1.27521,-0.94613 -2.09793,-2.50929 -0.82272,-1.56317 -0.82272,-3.94905 0,-2.59156 1.27521,-4.40154 1.31635,-1.85112 3.49655,-2.75611 2.18021,-0.90499 4.77177,-0.90499 1.85111,0 3.57882,0.41136 1.72771,0.41136 2.67384,1.11067 0.86385,0.61704 0.86385,1.23408 0,0.74044 -0.69931,1.93339 -0.69931,1.1518 -1.23408,1.1518 -0.20568,0 -0.65817,-0.20568 -0.4525,-0.20568 -0.69931,-0.32909 -1.64544,-0.69931 -3.49655,-0.69931 -2.22134,0 -3.29088,0.90499 -1.02839,0.86386 -1.02839,2.22134 0,1.19294 0.61703,1.97453 0.61704,0.74044 1.52203,1.19294 0.90499,0.45249 2.67384,1.1518 2.34474,0.94613 3.86677,1.85112 1.52203,0.90499 2.59156,2.59156 1.11067,1.64544 1.11067,4.237 0,4.31927 -2.6327,6.49947 -2.63269,2.13907 -6.58174,2.13907 z"
           id="path4285"
           inkscape:connector-curvature="0" />
        <path
           d="m 380.28921,-578.56598 q -2.1802,0 -2.1802,-1.19294 l 0,-23.07725 -6.99311,0 q -0.5759,0 -0.86385,-0.41135 -0.24681,-0.41136 -0.24681,-1.35749 l 0,-1.06953 q 0,-0.94613 0.24681,-1.35749 0.28795,-0.41136 0.86385,-0.41136 l 19.37501,0 q 0.57591,0 0.82272,0.41136 0.28795,0.41136 0.28795,1.35749 l 0,1.06953 q 0,0.94613 -0.28795,1.35749 -0.24681,0.41135 -0.82272,0.41135 l -6.95196,0 0,23.07725 q 0,1.19294 -2.18021,1.19294 l -1.06953,0 z"
           id="path4287"
           inkscape:connector-curvature="0" />
      </g>
    </g>
  </g>
</svg>
