<?xml version="1.0" encoding="UTF-8" standalone="no"?>
<svg
   xmlns:dc="http://purl.org/dc/elements/1.1/"
   xmlns:cc="http://creativecommons.org/ns#"
   xmlns:rdf="http://www.w3.org/1999/02/22-rdf-syntax-ns#"
   xmlns:svg="http://www.w3.org/2000/svg"
   xmlns="http://www.w3.org/2000/svg"
   xmlns:sodipodi="http://sodipodi.sourceforge.net/DTD/sodipodi-0.dtd"
   xmlns:inkscape="http://www.inkscape.org/namespaces/inkscape"
   version="1.1"
   id="svg2"
   viewBox="0 0 243.74999 243.74999"
   height="68.791664mm"
   width="68.791664mm"
   sodipodi:docname="ovi.svg"
   inkscape:version="0.92.2 2405546, 2018-03-11"
   inkscape:export-filename="/home/mike/Pictures/ovidesign-logo.png"
   inkscape:export-xdpi="96"
   inkscape:export-ydpi="96">
  <sodipodi:namedview
     pagecolor="#ffffff"
     bordercolor="#666666"
     borderopacity="1"
     objecttolerance="10"
     gridtolerance="10"
     guidetolerance="10"
     inkscape:pageopacity="0"
     inkscape:pageshadow="2"
     inkscape:window-width="1366"
     inkscape:window-height="697"
     id="namedview1173"
     showgrid="false"
     inkscape:zoom="0.61855671"
     inkscape:cx="394.46666"
     inkscape:cy="413.8667"
     inkscape:window-x="1366"
     inkscape:window-y="29"
     inkscape:window-maximized="1"
     inkscape:current-layer="svg2" />
  <defs
     id="defs4" />
  <metadata
     id="metadata7">
    <rdf:RDF>
      <cc:Work
         rdf:about="">
        <dc:format>image/svg+xml</dc:format>
        <dc:type
           rdf:resource="http://purl.org/dc/dcmitype/StillImage" />
        <dc:title />
      </cc:Work>
    </rdf:RDF>
  </metadata>
  <g
     id="g3270"
     transform="scale(0.31411082)">
    <g
       id="layer1"
       transform="translate(-4,-184.36218)" />
    <path
       inkscape:connector-curvature="0"
       style="opacity:1;fill:#2a3549;fill-opacity:1;stroke:none;stroke-width:1;stroke-miterlimit:4;stroke-dasharray:none;stroke-opacity:1"
       d="M 776,388 A 388,388 0 0 1 388,776 388,388 0 0 1 0,388 388,388 0 0 1 388,0 388,388 0 0 1 776,388 Z"
       id="path4151-0-8-4-1-1" />
    <path
       d="m 121.0774,414.80921 q 0,-20.0807 6.80155,-35.95093 7.12541,-15.87022 18.78517,-26.55834 11.65976,-11.01199 26.55834,-16.51799 15.22246,-5.82988 31.41657,-5.82988 15.87023,0 30.76881,5.82988 15.22246,5.506 26.88222,16.51799 11.65976,10.68812 18.78517,26.55834 7.12541,15.87023 7.12541,35.95093 0,20.08069 -7.12541,35.95092 -7.12541,15.87023 -18.78517,26.88223 -11.65976,10.68811 -26.88222,16.51799 -14.89858,5.506 -30.76881,5.506 -16.19411,0 -31.41657,-5.506 -14.89858,-5.82988 -26.55834,-16.51799 -11.65976,-11.012 -18.78517,-26.88223 -6.80155,-15.87023 -6.80155,-35.95092 z m 57.00329,0 q 0,18.46128 6.15376,29.47328 6.15376,10.68811 20.40458,10.68811 14.25082,0 20.40458,-10.68811 6.15376,-11.012 6.15376,-29.47328 0,-18.46129 -6.15376,-29.1494 -6.15376,-11.012 -20.40458,-11.012 -14.25082,0 -20.40458,11.012 -6.15376,10.68811 -6.15376,29.1494 z"
       id="path4519-9-6"
       inkscape:connector-curvature="0"
       style="font-style:normal;font-variant:normal;font-weight:900;font-stretch:normal;font-size:medium;line-height:125%;font-family:'Source Code Pro';-inkscape-font-specification:'Source Code Pro, Heavy';text-align:start;letter-spacing:0px;word-spacing:0px;writing-mode:lr-tb;text-anchor:start;fill:#ffffff;fill-opacity:1;stroke:none;stroke-width:1px;stroke-linecap:butt;stroke-linejoin:miter;stroke-opacity:1" />
    <path
       d="m 309.45035,333.83866 h 55.70774 l 21.05234,70.60632 q 3.5627,12.30752 6.47764,24.93893 3.23883,12.30752 6.80153,25.58669 h 1.29553 q 3.5627,-13.27917 6.47764,-25.58669 3.23882,-12.63141 6.80153,-24.93893 l 21.05234,-70.60632 h 53.11668 l -56.3555,161.9411 h -64.12868 z"
       id="path4521-7-2"
       inkscape:connector-curvature="0"
       style="font-style:normal;font-variant:normal;font-weight:900;font-stretch:normal;font-size:medium;line-height:125%;font-family:'Source Code Pro';-inkscape-font-specification:'Source Code Pro, Heavy';text-align:start;letter-spacing:0px;word-spacing:0px;writing-mode:lr-tb;text-anchor:start;fill:#ffffff;fill-opacity:1;stroke:none;stroke-width:1px;stroke-linecap:butt;stroke-linejoin:miter;stroke-opacity:1" />
    <path
       d="m 519.84726,333.83866 h 117.24536 v 161.9411 H 581.38488 V 377.23887 h -61.53762 z"
       id="path4527-8-1"
       inkscape:connector-curvature="0"
       style="font-style:normal;font-variant:normal;font-weight:900;font-stretch:normal;font-size:medium;line-height:125%;font-family:'Source Code Pro';-inkscape-font-specification:'Source Code Pro, Heavy';text-align:start;letter-spacing:0px;word-spacing:0px;writing-mode:lr-tb;text-anchor:start;fill:#ffffff;fill-opacity:1;stroke:none;stroke-width:1px;stroke-linecap:butt;stroke-linejoin:miter;stroke-opacity:1" />
    <path
       style="font-style:normal;font-variant:normal;font-weight:900;font-stretch:normal;font-size:medium;line-height:125%;font-family:'Source Code Pro';-inkscape-font-specification:'Source Code Pro, Heavy';text-align:start;letter-spacing:0px;word-spacing:0px;writing-mode:lr-tb;text-anchor:start;fill:#8fcbe5;fill-opacity:1;stroke:none;stroke-width:1px;stroke-linecap:butt;stroke-linejoin:miter;stroke-opacity:1"
       d="m 607.29546,313.75796 q -15.54635,0 -25.5867,-8.74482 -10.04035,-9.0687 -10.04035,-23.6434 0,-14.5747 10.04035,-23.6434 10.04035,-9.39258 25.5867,-9.39258 15.54634,0 25.58669,9.39258 10.04035,9.0687 10.04035,23.6434 0,14.5747 -10.04035,23.6434 -10.04035,8.74482 -25.58669,8.74482 z"
       id="path4523-2-2"
       inkscape:connector-curvature="0" />
  </g>
</svg>
